<svg width="500" height="500" viewBox="0 0 500 500" fill="none" xmlns="http://www.w3.org/2000/svg">
<path d="M408.39 272.24C408.39 272.24 403.58 275.87 403.58 280.68V305.28H439.45V279.58C439.45 279.58 438.95 273.27 434.73 272.24H408.39Z" fill="#F5F5F5"/>
<path d="M406.3 303.94C405.985 301.432 405.812 298.908 405.78 296.38C405.812 295.13 406.234 293.921 406.987 292.922C407.74 291.923 408.787 291.185 409.98 290.81C411.87 290.29 413.85 290.98 415.78 291.3C418.942 291.817 422.186 291.334 425.06 289.92C427.49 288.71 429.7 286.83 432.39 286.59C434.15 286.42 436.19 287.25 436.68 288.95C436.844 289.774 436.826 290.623 436.63 291.44C436.06 295.24 436.8 299.95 436.8 303.59C426.8 304.06 416.35 303.72 406.3 303.94Z" fill="#E0E0E0"/>
<path d="M401.31 308.75L406.71 305.28H439.45L444.7 308.75H401.31Z" fill="#E0E0E0"/>
<path d="M400.3 228.74V265.36H444.7V308.75H401.31V319.16H476.17V228.74C476.167 226.673 475.344 224.692 473.882 223.231C472.419 221.771 470.437 220.95 468.37 220.95H408.09C406.024 220.95 404.042 221.771 402.582 223.232C401.121 224.693 400.3 226.674 400.3 228.74Z" fill="#F5F5F5"/>
<path d="M476.17 229.58C476.17 229.75 459.17 229.9 438.23 229.9C417.29 229.9 400.3 229.75 400.3 229.58C400.3 229.41 417.3 229.26 438.23 229.26C459.16 229.26 476.17 229.4 476.17 229.58Z" fill="#E0E0E0"/>
<path d="M455.11 319.16C454.93 319.16 454.79 297.23 454.79 270.16C454.79 243.09 454.93 221.16 455.11 221.16C455.29 221.16 455.43 243.09 455.43 270.16C455.43 297.23 455.29 319.16 455.11 319.16Z" fill="#E0E0E0"/>
<path d="M396.28 293.41L395.83 282.32C395.647 279.123 396.491 275.952 398.24 273.27C399.67 271.18 401.78 269.27 404.78 269.27H434.78V272.2H405.38C405.38 272.2 400.09 272.75 399.38 280C398.967 284.447 398.967 288.923 399.38 293.37L396.28 293.41Z" fill="#E0E0E0"/>
<path d="M426.93 448.53H414.99V470.06H426.93V448.53Z" fill="#E0E0E0"/>
<path d="M479.7 448.53H467.76V470.06H479.7V448.53Z" fill="#E0E0E0"/>
<path d="M487.66 319.46H388.75V448.53H487.66V319.46Z" fill="#E0E0E0"/>
<path d="M466.97 319.46H370.63V448.53H466.97V319.46Z" fill="#F5F5F5"/>
<path d="M391.08 448.53H379.14V470.06H391.08V448.53Z" fill="#F5F5F5"/>
<path d="M459.75 448.53H447.81V470.06H459.75V448.53Z" fill="#F5F5F5"/>
<path d="M459.3 433.79C459.3 433.79 459.3 433.59 459.3 433.22C459.3 432.85 459.3 432.28 459.3 431.57C459.3 430.11 459.3 427.98 459.3 425.24C459.3 419.75 459.3 411.8 459.23 401.93L459.36 402.06L376.69 402.12L376.89 401.93C376.89 413.06 376.89 423.82 376.89 433.79L376.7 433.6L435.93 433.69L453.15 433.74H457.77H458.97H459.38H457.82H453.24L436.06 433.8L376.7 433.88H376.51V401.73H376.71L459.38 401.79H459.52V401.93C459.52 411.84 459.46 419.81 459.45 425.32C459.45 428.05 459.45 430.17 459.45 431.62C459.45 432.32 459.45 432.87 459.45 433.24C459.45 433.61 459.3 433.79 459.3 433.79Z" fill="#E0E0E0"/>
<path d="M420.46 417.86C420.46 417.86 420.46 417.63 420.31 417.26C420.149 416.745 419.827 416.296 419.39 415.98C419.073 415.752 418.705 415.605 418.317 415.552C417.93 415.5 417.536 415.544 417.17 415.68C416.86 415.799 416.579 415.984 416.346 416.221C416.113 416.458 415.934 416.742 415.82 417.054C415.706 417.366 415.66 417.698 415.685 418.029C415.71 418.361 415.805 418.683 415.965 418.974C416.124 419.265 416.345 419.519 416.61 419.718C416.876 419.918 417.181 420.058 417.506 420.129C417.83 420.201 418.166 420.202 418.491 420.133C418.816 420.065 419.122 419.927 419.39 419.73C419.827 419.414 420.149 418.965 420.31 418.45C420.42 418.08 420.42 417.85 420.46 417.86C420.522 418.062 420.522 418.278 420.46 418.48C420.351 419.062 420.035 419.584 419.57 419.95C419.22 420.225 418.807 420.408 418.369 420.481C417.93 420.554 417.48 420.516 417.06 420.37C416.551 420.179 416.112 419.838 415.803 419.391C415.493 418.944 415.327 418.414 415.327 417.87C415.327 417.327 415.493 416.796 415.803 416.349C416.112 415.902 416.551 415.561 417.06 415.37C417.48 415.224 417.93 415.186 418.369 415.259C418.807 415.332 419.22 415.515 419.57 415.79C420.033 416.158 420.349 416.679 420.46 417.26C420.514 417.456 420.514 417.664 420.46 417.86Z" fill="#E0E0E0"/>
<path d="M459.3 395.63C459.3 395.63 459.3 395.43 459.3 395.06C459.3 394.69 459.3 394.13 459.3 393.41C459.3 391.96 459.3 389.83 459.3 387.09C459.3 381.59 459.3 373.65 459.23 363.77L459.36 363.91L376.69 363.97L376.89 363.77C376.89 374.91 376.89 385.67 376.89 395.63L376.7 395.44L435.93 395.53L453.15 395.58H457.77H457.82H453.24L436.06 395.63L376.7 395.72H376.51V363.58H376.71L459.38 363.64H459.52V363.77C459.52 373.68 459.46 381.66 459.45 387.17C459.45 389.9 459.45 392.02 459.45 393.46C459.45 394.17 459.45 394.71 459.45 395.09C459.45 395.47 459.3 395.63 459.3 395.63Z" fill="#E0E0E0"/>
<path d="M420.46 379.7C420.46 379.7 420.46 379.48 420.31 379.11C420.152 378.594 419.829 378.144 419.39 377.83C419.074 377.6 418.706 377.451 418.319 377.397C417.932 377.343 417.537 377.385 417.17 377.52C416.727 377.687 416.345 377.985 416.076 378.375C415.807 378.764 415.662 379.227 415.662 379.7C415.662 380.174 415.807 380.636 416.076 381.025C416.345 381.415 416.727 381.713 417.17 381.88C417.536 382.016 417.93 382.06 418.317 382.008C418.705 381.955 419.073 381.808 419.39 381.58C419.827 381.26 420.15 380.808 420.31 380.29C420.42 379.92 420.42 379.7 420.46 379.7C420.521 379.906 420.521 380.124 420.46 380.33C420.349 380.911 420.033 381.432 419.57 381.8C419.22 382.075 418.807 382.258 418.369 382.331C417.93 382.404 417.48 382.366 417.06 382.22C416.551 382.029 416.112 381.688 415.803 381.241C415.493 380.794 415.327 380.264 415.327 379.72C415.327 379.176 415.493 378.646 415.803 378.199C416.112 377.752 416.551 377.411 417.06 377.22C417.479 377.071 417.93 377.031 418.369 377.105C418.808 377.178 419.222 377.362 419.57 377.64C420.032 378.004 420.348 378.522 420.46 379.1C420.515 379.296 420.515 379.504 420.46 379.7Z" fill="#E0E0E0"/>
<path d="M459.3 358C459.3 358 459.3 357.8 459.3 357.43C459.3 357.06 459.3 356.5 459.3 355.78C459.3 354.33 459.3 352.2 459.3 349.46C459.3 343.96 459.3 336.02 459.23 326.14L459.36 326.28L376.69 326.34L376.89 326.14C376.89 337.28 376.89 348.04 376.89 358L376.7 357.81L435.93 357.9L453.15 357.95H457.77H458.99H457.82H453.24H436.06L376.7 358.04H376.51V325.94H376.71L459.38 326H459.52V326.13C459.52 336.04 459.46 344.02 459.45 349.53C459.45 352.26 459.45 354.38 459.45 355.82C459.45 356.53 459.45 357.07 459.45 357.45C459.45 357.83 459.3 358 459.3 358Z" fill="#E0E0E0"/>
<path d="M420.46 342.06C420.46 342.06 420.46 341.84 420.31 341.47C420.152 340.954 419.829 340.504 419.39 340.19C419.074 339.959 418.706 339.811 418.318 339.758C417.93 339.706 417.536 339.751 417.17 339.89C416.726 340.055 416.343 340.351 416.073 340.74C415.802 341.129 415.657 341.591 415.657 342.065C415.657 342.538 415.802 343.001 416.073 343.39C416.343 343.778 416.726 344.075 417.17 344.24C417.536 344.376 417.93 344.42 418.317 344.367C418.705 344.315 419.073 344.168 419.39 343.94C419.829 343.622 420.153 343.169 420.31 342.65C420.42 342.28 420.42 342.06 420.46 342.06C420.52 342.266 420.52 342.484 420.46 342.69C420.349 343.271 420.033 343.792 419.57 344.16C419.22 344.435 418.807 344.617 418.369 344.691C417.93 344.764 417.48 344.726 417.06 344.58C416.551 344.389 416.112 344.047 415.803 343.601C415.493 343.154 415.327 342.623 415.327 342.08C415.327 341.536 415.493 341.006 415.803 340.559C416.112 340.112 416.551 339.771 417.06 339.58C417.479 339.431 417.93 339.391 418.369 339.465C418.808 339.538 419.222 339.722 419.57 340C420.032 340.364 420.348 340.882 420.46 341.46C420.515 341.656 420.515 341.864 420.46 342.06Z" fill="#E0E0E0"/>
<path d="M468.49 319.15C468.49 319.35 450.49 319.51 428.23 319.51C405.97 319.51 387.98 319.35 387.98 319.15C387.98 318.95 405.98 318.8 428.23 318.8C450.48 318.8 468.49 319 468.49 319.15Z" fill="#E0E0E0"/>
<path d="M108.56 412.31H33.38V418.14H108.56V412.31Z" fill="#EBEBEB"/>
<path d="M108.55 412.31H87.91V418.14H108.55V412.31Z" fill="#E0E0E0"/>
<path d="M23.83 418.15V444.41H19.71V447.27H23.83V464.85H100.83V448.85H95.13V445.36H100.83V440.14H103.36V437.76H100.36V418.15H23.83Z" fill="#F5F5F5"/>
<path d="M80.37 418.22V464.55H100.81V448.56H95.11V445.36H100.81V440.14H103.34V437.47H100.33V418.14L80.37 418.22Z" fill="#E0E0E0"/>
<path d="M81.82 446.89C81.82 447.05 67.89 447.18 50.72 447.18C33.55 447.18 19.6 447.05 19.6 446.89C19.6 446.73 33.53 446.6 50.72 446.6C67.91 446.6 81.82 446.73 81.82 446.89Z" fill="#E0E0E0"/>
<path d="M81.82 444.22C81.82 444.38 67.89 444.51 50.72 444.51C33.55 444.51 19.6 444.38 19.6 444.22C19.6 444.06 33.53 443.93 50.72 443.93C67.91 443.93 81.82 444.06 81.82 444.22Z" fill="#E0E0E0"/>
<path d="M85.82 437C85.82 437.16 71.89 437.29 54.71 437.29C37.53 437.29 23.6 437.2 23.6 437C23.6 436.8 37.53 436.71 54.71 436.71C71.89 436.71 85.82 436.88 85.82 437Z" fill="#E0E0E0"/>
<path d="M86.2 456.61C86.2 456.77 72.27 456.9 55.1 456.9C37.93 456.9 24 456.77 24 456.61C24 456.45 37.93 456.32 55.12 456.32C72.31 456.32 86.2 456.45 86.2 456.61Z" fill="#E0E0E0"/>
<path d="M31.45 365.61V391.88H27.33V394.73H31.45V412.31H108.45V396.31H102.75V392.82H108.45V387.6H111V385.23H108V365.61H31.45Z" fill="#F5F5F5"/>
<path d="M87.98 365.69V412.02H108.42V396.02H102.72V392.83L108.42 392.94V387.71H111.01L110.96 385.01L107.95 384.94V365.61L87.98 365.69Z" fill="#E0E0E0"/>
<path d="M89.44 394.35C89.44 394.51 75.51 394.65 58.33 394.65C41.15 394.65 27.22 394.51 27.22 394.35C27.22 394.19 41.15 394.06 58.33 394.06C75.51 394.06 89.44 394.19 89.44 394.35Z" fill="#E0E0E0"/>
<path d="M89.44 391.69C89.44 391.85 75.51 391.98 58.33 391.98C41.15 391.98 27.22 391.85 27.22 391.69C27.22 391.53 41.15 391.39 58.33 391.39C75.51 391.39 89.44 391.53 89.44 391.69Z" fill="#E0E0E0"/>
<path d="M93.43 384.5C93.43 384.67 79.51 384.8 62.33 384.8C45.15 384.8 31.21 384.67 31.21 384.5C31.21 384.33 45.14 384.21 62.33 384.21C79.52 384.21 93.43 384.34 93.43 384.5Z" fill="#E0E0E0"/>
<path d="M93.82 404.07C93.82 404.23 79.89 404.36 62.71 404.36C45.53 404.36 31.6 404.23 31.6 404.07C31.6 403.91 45.53 403.78 62.71 403.78C79.89 403.78 93.82 403.91 93.82 404.07Z" fill="#E0E0E0"/>
<path d="M103.52 464.58H28.34V470.41H103.52V464.58Z" fill="#EBEBEB"/>
<path d="M103.51 464.58H82.87V470.41H103.51V464.58Z" fill="#E0E0E0"/>
<path d="M53.1899 245.79V269.79H49.4199V272.4H53.1899V288.48H123.61V273.88H118.39V270.69H123.61V265.91H125.93V263.73H123.17V245.79H53.1899Z" fill="#F5F5F5"/>
<path d="M104.91 245.86V288.25H123.61V273.61H118.39V270.69L123.61 270.79V266.01H125.97L125.93 263.54L123.17 263.47V245.79L104.91 245.86Z" fill="#E0E0E0"/>
<path d="M106.24 272.08C106.24 272.23 93.4999 272.35 77.7799 272.35C62.0599 272.35 49.3199 272.23 49.3199 272.08C49.3199 271.93 62.0599 271.82 77.7799 271.82C93.4999 271.82 106.24 271.94 106.24 272.08Z" fill="#E0E0E0"/>
<path d="M106.24 269.64C106.24 269.79 93.4999 269.91 77.7799 269.91C62.0599 269.91 49.3199 269.79 49.3199 269.64C49.3199 269.49 62.0599 269.38 77.7799 269.38C93.4999 269.38 106.24 269.49 106.24 269.64Z" fill="#E0E0E0"/>
<path d="M109.9 263.07C109.9 263.22 97.15 263.34 81.44 263.34C65.73 263.34 53 263.22 53 263.07C53 262.92 65.74 262.81 81.47 262.81C97.2 262.81 109.9 262.92 109.9 263.07Z" fill="#E0E0E0"/>
<path d="M110.25 281C110.25 281.15 97.5 281.27 81.79 281.27C66.08 281.27 53.33 281.15 53.33 281C53.33 280.85 66.07 280.74 81.79 280.74C97.51 280.74 110.25 280.83 110.25 281Z" fill="#E0E0E0"/>
<path d="M269.9 89.9702H167.86V181.26H269.9V89.9702Z" fill="#FAFAFA"/>
<path d="M269.9 181.27C269.9 181.27 269.9 180.68 269.9 179.57C269.9 178.46 269.9 176.82 269.9 174.68C269.9 170.4 269.9 164.13 269.84 156.15C269.84 140.15 269.77 117.41 269.72 89.9702L269.95 90.2002H167.95L168.22 89.9202C168.22 123.14 168.22 154.39 168.22 181.22L167.98 180.98L241.79 181.1L262.6 181.16H268.11H269.53H270.02H269.56H268.17H262.7L241.94 181.23L167.94 181.35H167.7V181.11C167.7 154.28 167.7 123.03 167.7 89.8102V89.7002H167.98H269.98H270.22V90.0002C270.17 117.5 270.13 140.34 270.1 156.33C270.1 164.28 270.1 170.53 270.04 174.81C270.04 176.92 270.04 178.54 270.04 179.65C270.04 180.76 269.9 181.27 269.9 181.27Z" fill="#E0E0E0"/>
<path d="M207 106.19C207 106.35 201.63 106.47 195 106.47C188.37 106.47 183 106.35 183 106.19C183 106.03 188.37 105.92 195 105.92C201.63 105.92 207 106 207 106.19Z" fill="#E0E0E0"/>
<path d="M250.23 113.05C250.23 113.2 235.47 113.32 217.23 113.32C198.99 113.32 184.23 113.2 184.23 113.05C184.23 112.9 198.99 112.78 217.23 112.78C235.47 112.78 250.23 112.9 250.23 113.05Z" fill="#E0E0E0"/>
<path d="M187.47 124.66H183.17V128.96H187.47V124.66Z" fill="#E0E0E0"/>
<path d="M198.05 124.66H193.75V128.96H198.05V124.66Z" fill="#E0E0E0"/>
<path d="M208.83 124.47H204.53V128.77H208.83V124.47Z" fill="#E0E0E0"/>
<path d="M219.22 124.66H214.92V128.96H219.22V124.66Z" fill="#E0E0E0"/>
<path d="M229.8 124.66H225.5V128.96H229.8V124.66Z" fill="#E0E0E0"/>
<path d="M240.38 124.66H236.08V128.96H240.38V124.66Z" fill="#E0E0E0"/>
<path d="M250.97 124.66H246.67V128.96H250.97V124.66Z" fill="#EBEBEB"/>
<path d="M187.47 133.8H183.17V138.1H187.47V133.8Z" fill="#EBEBEB"/>
<path d="M198.05 133.8H193.75V138.1H198.05V133.8Z" fill="#E0E0E0"/>
<path d="M208.64 133.8H204.34V138.1H208.64V133.8Z" fill="#EBEBEB"/>
<path d="M219.22 133.8H214.92V138.1H219.22V133.8Z" fill="#E0E0E0"/>
<path d="M229.8 133.8H225.5V138.1H229.8V133.8Z" fill="#E0E0E0"/>
<path d="M240.58 133.61H236.28V137.91H240.58V133.61Z" fill="#E0E0E0"/>
<path d="M250.97 133.8H246.67V138.1H250.97V133.8Z" fill="#E0E0E0"/>
<path d="M187.47 142.94H183.17V147.24H187.47V142.94Z" fill="#E0E0E0"/>
<path d="M198.25 142.74H193.95V147.04H198.25V142.74Z" fill="#E0E0E0"/>
<path d="M208.64 142.94H204.34V147.24H208.64V142.94Z" fill="#E0E0E0"/>
<path d="M219.22 142.94H214.92V147.24H219.22V142.94Z" fill="#EBEBEB"/>
<path d="M229.8 142.94H225.5V147.24H229.8V142.94Z" fill="#E0E0E0"/>
<path d="M240.38 142.94H236.08V147.24H240.38V142.94Z" fill="#E0E0E0"/>
<path d="M250.97 142.94H246.67V147.24H250.97V142.94Z" fill="#E0E0E0"/>
<path d="M187.47 152.08H183.17V156.38H187.47V152.08Z" fill="#E0E0E0"/>
<path d="M198.05 152.08H193.75V156.38H198.05V152.08Z" fill="#E0E0E0"/>
<path d="M208.64 152.08H204.34V156.38H208.64V152.08Z" fill="#E0E0E0"/>
<path d="M219.41 151.88H215.11V156.18H219.41V151.88Z" fill="#E0E0E0"/>
<path d="M229.8 152.08H225.5V156.38H229.8V152.08Z" fill="#E0E0E0"/>
<path d="M240.38 152.08H236.08V156.38H240.38V152.08Z" fill="#EBEBEB"/>
<path d="M250.97 152.08H246.67V156.38H250.97V152.08Z" fill="#E0E0E0"/>
<path d="M187.47 161.22H183.17V165.52H187.47V161.22Z" fill="#E0E0E0"/>
<path d="M198.05 161.22H193.75V165.52H198.05V161.22Z" fill="#EBEBEB"/>
<path d="M208.64 161.22H204.34V165.52H208.64V161.22Z" fill="#E0E0E0"/>
<path d="M219.22 161.22H214.92V165.52H219.22V161.22Z" fill="#E0E0E0"/>
<path d="M229.8 161.22H225.5V165.52H229.8V161.22Z" fill="#E0E0E0"/>
<path d="M240.58 161.02H236.28V165.32H240.58V161.02Z" fill="#E0E0E0"/>
<path d="M250.97 161.22H246.67V165.52H250.97V161.22Z" fill="#E0E0E0"/>
<path d="M406.58 110.1H424.55V79.1401H406.58V110.1Z" fill="#EBEBEB"/>
<path d="M356.46 110.6H370.65V71.9501H356.46V110.6Z" fill="#EBEBEB"/>
<path d="M356.3 74.74C361.125 74.4467 365.964 74.4467 370.79 74.74C368.383 74.9588 365.965 75.0323 363.55 74.96C361.131 75.0321 358.71 74.9586 356.3 74.74Z" fill="#FAFAFA"/>
<path d="M357.09 76.5699C361.652 76.2899 366.228 76.2899 370.79 76.5699C366.228 76.8632 361.652 76.8632 357.09 76.5699Z" fill="#FAFAFA"/>
<path d="M363.15 103C363.04 103 362.94 97.8799 362.94 91.5599C362.94 85.2399 363.04 80.1299 363.15 80.1299C363.26 80.1299 363.37 85.2499 363.37 91.5599C363.37 97.8699 363.27 103 363.15 103Z" fill="#FAFAFA"/>
<path d="M356.47 106.52C361.095 106.226 365.735 106.226 370.36 106.52C365.734 106.8 361.096 106.8 356.47 106.52Z" fill="#FAFAFA"/>
<path d="M356.47 108.17C361.213 107.89 365.967 107.89 370.71 108.17C365.968 108.463 361.212 108.463 356.47 108.17Z" fill="#FAFAFA"/>
<path d="M370.65 110.6H382.05V67.7701H370.65V110.6Z" fill="#E0E0E0"/>
<path d="M370.57 87.4399C371.199 87.7868 371.792 88.1955 372.34 88.6599L376.45 91.7799L380.55 94.9099C381.144 95.3109 381.697 95.7698 382.2 96.2799C381.556 95.9711 380.946 95.5957 380.38 95.1599C379.28 94.4099 377.8 93.3499 376.19 92.1599C374.58 90.9699 373.19 89.7899 372.19 88.9399C371.601 88.4955 371.058 87.993 370.57 87.4399Z" fill="#FAFAFA"/>
<path d="M370.52 80.73C372.556 82.1894 374.506 83.7653 376.36 85.45C378.302 87.0117 380.155 88.681 381.91 90.45C379.874 88.9906 377.924 87.4146 376.07 85.73C374.128 84.1683 372.275 82.499 370.52 80.73Z" fill="#FAFAFA"/>
<path d="M321.12 110.63H326.57V69.8299H321.12V110.63Z" fill="#EBEBEB"/>
<path d="M321.34 75.3898C322.166 75.6371 323.032 75.722 323.89 75.6398C324.751 75.7215 325.621 75.6367 326.45 75.3898C325.623 75.1307 324.752 75.0422 323.89 75.1298C323.031 75.0416 322.163 75.1301 321.34 75.3898Z" fill="#FAFAFA"/>
<path d="M323.78 74.7602C325.188 74.7602 326.33 74.6438 326.33 74.5002C326.33 74.3566 325.188 74.2402 323.78 74.2402C322.372 74.2402 321.23 74.3566 321.23 74.5002C321.23 74.6438 322.372 74.7602 323.78 74.7602Z" fill="#FAFAFA"/>
<path d="M321.34 107.48C322.166 107.727 323.032 107.812 323.89 107.73C324.751 107.812 325.621 107.727 326.45 107.48C325.623 107.221 324.752 107.133 323.89 107.22C323.031 107.132 322.163 107.22 321.34 107.48Z" fill="#FAFAFA"/>
<path d="M321.23 106.59C322.056 106.837 322.922 106.922 323.78 106.84C324.641 106.922 325.511 106.837 326.34 106.59C325.512 106.337 324.642 106.248 323.78 106.33C322.921 106.248 322.055 106.336 321.23 106.59Z" fill="#FAFAFA"/>
<path d="M324 101.26C324.263 97.7865 324.35 94.302 324.26 90.8199C324.35 87.3377 324.263 83.8532 324 80.3799C323.86 80.3799 323.75 85.0599 323.75 90.8199C323.75 96.5799 323.86 101.26 324 101.26Z" fill="#FAFAFA"/>
<path d="M345.55 110.37H356.45V69.5701H345.55V110.37Z" fill="#E0E0E0"/>
<path d="M353.38 110.89C353.38 110.89 353.43 110.82 353.5 110.67C353.57 110.52 353.69 110.29 353.82 109.99C354.188 109.103 354.453 108.177 354.61 107.23C354.883 105.703 354.659 104.129 353.97 102.74C353.499 101.876 352.822 101.141 352 100.6C351.079 99.9772 349.962 99.7139 348.86 99.8599C348.259 99.9585 347.696 100.218 347.23 100.61C346.978 100.819 346.777 101.082 346.642 101.38C346.507 101.678 346.441 102.003 346.45 102.33C346.478 102.667 346.575 102.994 346.735 103.292C346.895 103.589 347.114 103.851 347.38 104.06C347.906 104.505 348.555 104.78 349.24 104.85C349.947 104.905 350.658 104.808 351.326 104.567C351.993 104.325 352.601 103.945 353.11 103.45C354.2 102.413 354.879 101.018 355.02 99.5199C355.181 97.9934 355.003 96.4501 354.5 94.9999C354.017 93.4359 353.089 92.0461 351.83 90.9999C351.15 90.4691 350.33 90.1492 349.47 90.0799C349.022 90.0319 348.57 90.0851 348.146 90.2357C347.722 90.3863 347.337 90.6304 347.02 90.9499C346.688 91.2928 346.489 91.7433 346.46 92.2199C346.452 92.6943 346.584 93.1604 346.84 93.5599C347.351 94.3264 348.14 94.8643 349.04 95.0599C349.911 95.2296 350.811 95.1705 351.652 94.8883C352.494 94.6061 353.247 94.1105 353.84 93.4499C354.933 92.1565 355.588 90.5493 355.71 88.8599C355.893 87.2546 355.733 85.6287 355.24 84.0899C354.767 82.586 353.77 81.3016 352.43 80.4699C351.796 80.0557 351.074 79.7972 350.321 79.7156C349.569 79.6339 348.808 79.7313 348.1 79.9999C347.744 80.1355 347.428 80.3587 347.182 80.6489C346.935 80.9391 346.766 81.2869 346.69 81.6599C346.624 82.0185 346.634 82.3868 346.719 82.7414C346.803 83.0961 346.96 83.4293 347.18 83.7199C347.625 84.2332 348.212 84.6024 348.868 84.7805C349.523 84.9585 350.217 84.9375 350.86 84.7199C352 84.3224 353.002 83.6077 353.75 82.6599C355.078 81.0906 355.845 79.1237 355.93 77.0699C355.98 75.529 355.636 74.0007 354.93 72.6299C354.489 71.7723 353.911 70.9921 353.22 70.3199C353.039 70.1467 352.848 69.9831 352.65 69.8299C352.586 69.7754 352.515 69.7285 352.44 69.6899C353.388 70.5395 354.171 71.5565 354.75 72.6899C355.413 74.0333 355.723 75.5236 355.65 77.0199C355.543 79.0024 354.784 80.8939 353.49 82.3999C352.776 83.2831 351.826 83.9454 350.75 84.3099C350.189 84.5022 349.584 84.5241 349.011 84.3728C348.438 84.2215 347.923 83.9039 347.53 83.4599C347.349 83.2159 347.22 82.9373 347.152 82.6414C347.083 82.3456 347.075 82.0387 347.13 81.7399C347.195 81.4381 347.335 81.1576 347.538 80.9249C347.741 80.6923 348 80.515 348.29 80.4099C348.93 80.1748 349.616 80.093 350.293 80.1712C350.971 80.2493 351.62 80.4852 352.19 80.8599C353.436 81.6319 354.359 82.8292 354.79 84.2299C355.255 85.6988 355.402 87.2499 355.22 88.7799C355.106 90.3653 354.494 91.874 353.47 93.0899C352.937 93.682 352.26 94.1265 351.505 94.3805C350.75 94.6345 349.942 94.6894 349.16 94.5399C348.395 94.3712 347.722 93.9171 347.28 93.2699C347.065 92.9737 346.961 92.6117 346.984 92.2465C347.008 91.8813 347.159 91.5359 347.41 91.2699C347.671 91.012 347.985 90.814 348.331 90.6897C348.676 90.5654 349.044 90.5177 349.41 90.5499C350.17 90.6162 350.893 90.9048 351.49 91.3799C352.673 92.3593 353.546 93.6625 354 95.1299C354.505 96.5173 354.693 98.0004 354.55 99.4699C354.429 100.859 353.807 102.156 352.8 103.12C352.341 103.575 351.791 103.927 351.186 104.153C350.581 104.379 349.935 104.473 349.29 104.43C348.703 104.406 348.142 104.182 347.699 103.797C347.255 103.412 346.956 102.888 346.85 102.31C346.84 102.041 346.892 101.774 347.003 101.529C347.115 101.285 347.281 101.069 347.49 100.9C347.894 100.544 348.389 100.309 348.92 100.22C349.935 100.073 350.968 100.308 351.82 100.88C352.591 101.388 353.229 102.074 353.68 102.88C354.36 104.215 354.601 105.73 354.37 107.21C354.238 108.149 354.007 109.07 353.68 109.96C353.5 110.57 353.36 110.88 353.38 110.89Z" fill="#FAFAFA"/>
<path d="M326.47 110.38H345.39V73.2199H326.47V110.38Z" fill="#FAFAFA"/>
<path d="M327.13 79.4C330.173 79.6573 333.228 79.7442 336.28 79.66C339.336 79.7443 342.394 79.6575 345.44 79.4C342.394 79.1491 339.336 79.0656 336.28 79.15C333.228 79.0658 330.173 79.1492 327.13 79.4Z" fill="#E0E0E0"/>
<path d="M326.89 82.22C329.883 82.4758 332.888 82.5627 335.89 82.48C338.893 82.5627 341.897 82.4758 344.89 82.22C341.897 81.9641 338.893 81.8773 335.89 81.96C332.888 81.8773 329.883 81.9641 326.89 82.22Z" fill="#E0E0E0"/>
<path d="M326.28 106.19C329.447 106.441 332.624 106.524 335.8 106.44C338.976 106.524 342.153 106.441 345.32 106.19C342.154 105.927 338.976 105.84 335.8 105.93C332.624 105.84 329.446 105.927 326.28 106.19Z" fill="#E0E0E0"/>
<path d="M326.54 102.88C329.623 103.131 332.718 103.214 335.81 103.13C338.902 103.214 341.997 103.131 345.08 102.88C341.998 102.616 338.902 102.53 335.81 102.62C332.718 102.53 329.623 102.616 326.54 102.88Z" fill="#E0E0E0"/>
<path d="M382.04 110.11H392.94V69.3099H382.04V110.11Z" fill="#EBEBEB"/>
<path d="M389.87 110.63C389.87 110.63 389.92 110.56 390 110.41C390.08 110.26 390.18 110.03 390.31 109.73C390.678 108.84 390.943 107.911 391.1 106.96C391.372 105.434 391.148 103.86 390.46 102.47C389.996 101.616 389.335 100.885 388.53 100.34C387.609 99.7174 386.492 99.4541 385.39 99.6001C384.789 99.6987 384.226 99.9578 383.76 100.35C383.508 100.559 383.307 100.822 383.172 101.12C383.037 101.418 382.971 101.743 382.98 102.07C383.011 102.407 383.11 102.735 383.272 103.032C383.433 103.329 383.654 103.591 383.92 103.8C384.442 104.246 385.087 104.522 385.77 104.59C386.478 104.643 387.19 104.545 387.857 104.302C388.524 104.059 389.132 103.677 389.64 103.18C390.731 102.147 391.413 100.755 391.56 99.2601C391.704 97.72 391.509 96.1671 390.99 94.7101C390.507 93.1461 389.579 91.7563 388.32 90.7101C387.64 90.1793 386.82 89.8594 385.96 89.7901C385.514 89.7458 385.063 89.7998 384.64 89.9483C384.216 90.0969 383.831 90.3365 383.51 90.6501C383.178 91.021 382.996 91.5023 383 92.0001C382.992 92.4744 383.124 92.9406 383.38 93.3401C383.891 94.1066 384.68 94.6445 385.58 94.8401C386.451 95.0068 387.35 94.9463 388.191 94.6643C389.032 94.3823 389.786 93.8883 390.38 93.2301C391.475 91.9339 392.13 90.323 392.25 88.6301C392.437 87.0281 392.277 85.4046 391.78 83.8701C391.31 82.3645 390.312 81.0791 388.97 80.2501C388.334 79.8405 387.612 79.5856 386.86 79.5057C386.108 79.4258 385.348 79.5232 384.64 79.7901C384.283 79.9265 383.966 80.1513 383.72 80.4433C383.473 80.7354 383.305 81.0852 383.23 81.4601C383.171 81.8093 383.184 82.1668 383.269 82.5107C383.353 82.8546 383.506 83.1777 383.72 83.4601C384.164 83.9745 384.751 84.3444 385.407 84.5226C386.063 84.7008 386.757 84.679 387.4 84.4601C388.538 84.0591 389.54 83.3451 390.29 82.4001C391.619 80.8277 392.386 78.8572 392.47 76.8001C392.521 75.2622 392.177 73.737 391.47 72.3701C391.017 71.4868 390.418 70.6857 389.7 70.0001C389.521 69.824 389.331 69.6603 389.13 69.5101C389.068 69.4529 388.997 69.4057 388.92 69.3701C389.871 70.2167 390.655 71.2343 391.23 72.3701C391.893 73.7134 392.203 75.2037 392.13 76.7001C392.045 78.6998 391.295 80.6141 390 82.1401C389.287 83.027 388.337 83.6929 387.26 84.0601C386.699 84.2524 386.094 84.2742 385.521 84.123C384.948 83.9717 384.433 83.654 384.04 83.2101C383.859 82.966 383.73 82.6875 383.662 82.3916C383.593 82.0958 383.585 81.7889 383.64 81.4901C383.705 81.1882 383.845 80.9078 384.048 80.6751C384.251 80.4424 384.51 80.2652 384.8 80.1601C385.439 79.9235 386.125 79.8401 386.802 79.9165C387.48 79.9929 388.13 80.227 388.7 80.6001C389.944 81.3786 390.867 82.5782 391.3 83.9801C391.765 85.449 391.912 87.0001 391.73 88.5301C391.616 90.1125 391.003 91.6179 389.98 92.8301C389.449 93.4223 388.774 93.8678 388.021 94.1235C387.268 94.3792 386.462 94.4366 385.68 94.2901C385.292 94.2116 384.924 94.0572 384.596 93.8359C384.268 93.6145 383.988 93.3304 383.77 93.0001C383.55 92.7065 383.441 92.3443 383.463 91.9781C383.485 91.6119 383.637 91.2654 383.89 91.0001C384.153 90.7451 384.468 90.5497 384.813 90.4272C385.158 90.3046 385.525 90.2579 385.89 90.2901C386.649 90.3529 387.372 90.6381 387.97 91.1101C389.151 92.0893 390.026 93.3876 390.49 94.8501C390.995 96.2377 391.186 97.7198 391.05 99.1901C390.923 100.577 390.298 101.87 389.29 102.83C388.832 103.287 388.283 103.641 387.677 103.869C387.072 104.096 386.425 104.192 385.78 104.15C385.194 104.124 384.634 103.9 384.191 103.515C383.748 103.13 383.448 102.607 383.34 102.03C383.331 101.76 383.383 101.492 383.494 101.245C383.605 100.999 383.772 100.782 383.98 100.61C384.388 100.263 384.882 100.032 385.41 99.9401C386.425 99.7933 387.458 100.028 388.31 100.6C389.081 101.108 389.719 101.794 390.17 102.6C390.85 103.935 391.091 105.45 390.86 106.93C390.733 107.87 390.502 108.792 390.17 109.68C390 110.31 389.85 110.62 389.87 110.63Z" fill="#FAFAFA"/>
<path d="M305.97 110.11H321.12V67.2499H305.97V110.11Z" fill="#E0E0E0"/>
<path d="M392.94 110.11H407.11V71.9499H392.94V110.11Z" fill="#E0E0E0"/>
<path d="M407.46 91.0002C408.143 91.6218 408.899 92.159 409.71 92.6002C410.601 93.0417 411.568 93.3098 412.56 93.3902C413.772 93.4857 414.989 93.276 416.1 92.7802C417.3 92.2702 418.39 91.6102 419.5 91.2302C420.479 90.8321 421.554 90.7312 422.59 90.9402C423.285 91.0933 423.912 91.4648 424.38 92.0002C424.561 92.1877 424.682 92.4241 424.73 92.6802C424.73 92.6802 424.59 92.4502 424.25 92.1102C423.775 91.6457 423.173 91.3326 422.52 91.2102C421.545 91.055 420.547 91.1798 419.64 91.5702C418.58 91.9602 417.51 92.5702 416.27 93.1402C415.095 93.6586 413.809 93.8719 412.53 93.7602C411.477 93.6624 410.456 93.3492 409.53 92.8402C408.916 92.5111 408.359 92.0857 407.88 91.5802C407.706 91.4137 407.564 91.2172 407.46 91.0002Z" fill="#FAFAFA"/>
<path d="M407.14 94.7598C407.829 95.3745 408.583 95.9111 409.39 96.3598C410.281 96.8013 411.249 97.0694 412.24 97.1498C413.453 97.2367 414.669 97.0238 415.78 96.5298C416.98 96.0198 418.07 95.3698 419.18 94.9798C420.16 94.5845 421.235 94.487 422.27 94.6998C422.968 94.861 423.596 95.2433 424.06 95.7898C424.38 96.1798 424.43 96.4598 424.41 96.4698C424.39 96.4798 424.27 96.2298 423.94 95.8998C423.464 95.4306 422.858 95.1167 422.2 94.9998C421.225 94.8401 420.225 94.9651 419.32 95.3598C418.26 95.7398 417.19 96.3598 415.95 96.9298C414.776 97.4508 413.488 97.6608 412.21 97.5398C411.158 97.4485 410.136 97.1386 409.21 96.6298C408.595 96.2979 408.038 95.869 407.56 95.3598C407.384 95.1873 407.242 94.9839 407.14 94.7598Z" fill="#FAFAFA"/>
<path d="M407.38 82.5298C407.38 82.4098 411.28 82.3198 416.09 82.3198C420.9 82.3198 424.8 82.4098 424.8 82.5298C421.902 82.7487 418.995 82.8221 416.09 82.7498C413.185 82.8221 410.278 82.7487 407.38 82.5298Z" fill="#FAFAFA"/>
<path d="M401 78.0998C400.609 77.9322 400.175 77.8936 399.76 77.9898C399.545 78.0417 399.344 78.1403 399.171 78.2786C398.998 78.4168 398.858 78.5913 398.76 78.7898C398.671 79.0289 398.657 79.2898 398.722 79.5367C398.786 79.7837 398.925 80.0048 399.12 80.1698C399.293 80.3556 399.519 80.4847 399.767 80.54C400.015 80.5954 400.274 80.5744 400.51 80.4798C400.702 80.3791 400.87 80.2372 401.001 80.0644C401.133 79.8916 401.224 79.692 401.27 79.4798C401.347 79.0641 401.294 78.6349 401.12 78.2498C401.12 78.2498 401.26 78.3098 401.39 78.5198C401.559 78.824 401.623 79.1757 401.57 79.5198C401.532 79.7878 401.432 80.0435 401.28 80.2671C401.127 80.4907 400.926 80.6764 400.69 80.8098C400.38 80.9534 400.033 80.9959 399.697 80.9313C399.361 80.8667 399.055 80.6983 398.82 80.4498C398.566 80.2233 398.389 79.924 398.312 79.5929C398.235 79.2617 398.262 78.9149 398.39 78.5998C398.511 78.3578 398.687 78.1477 398.904 77.9861C399.121 77.8246 399.373 77.7163 399.64 77.6698C399.98 77.6003 400.333 77.6498 400.64 77.8098C400.9 77.9998 401 78.0798 401 78.0998Z" fill="#FAFAFA"/>
<path d="M400 106.29C399.88 106.29 399.78 100.94 399.78 94.2901C399.78 87.6401 399.88 82.3501 400 82.3501C400.12 82.3501 400.22 87.6901 400.22 94.2901C400.22 100.89 400.16 106.29 400 106.29Z" fill="#FAFAFA"/>
<path d="M439.36 109.89H292.71V118.26H439.36V109.89Z" fill="#EBEBEB"/>
<path d="M439.35 109.89H426.55V118.26H439.35V109.89Z" fill="#E0E0E0"/>
<path d="M391.43 245.94C398.43 237.59 402.48 235.29 407.57 229.63C411.85 224.85 416.21 219.95 418.73 214.04C421.25 208.13 421.62 200.92 418.07 195.57C411.591 194.261 405.039 193.343 398.45 192.82C390.08 192.36 386.19 192.43 386.19 192.43L381.55 206.43L389.93 209.85L372.77 225.38L359.22 241.14L366 260.69L375.12 261.53L391.43 245.94Z" fill="#FFBE9D"/>
<path d="M403.42 196.93C402.741 197.757 401.999 198.529 401.2 199.24L395.7 204.64C393.54 206.75 391.56 208.64 390.08 209.95C389.318 210.689 388.491 211.358 387.61 211.95C388.294 211.131 389.036 210.363 389.83 209.65L395.33 204.24C397.49 202.13 399.47 200.24 400.95 198.94C401.714 198.2 402.54 197.528 403.42 196.93Z" fill="#EB996E"/>
<path d="M415.83 200.63C415.76 200.69 415.36 200.25 414.56 199.78C413.53 199.165 412.336 198.883 411.14 198.97C409.945 199.099 408.816 199.583 407.9 200.36C407.2 200.96 406.9 201.47 406.81 201.43C406.72 201.39 406.96 200.81 407.65 200.09C408.563 199.147 409.786 198.564 411.094 198.45C412.402 198.336 413.707 198.699 414.77 199.47C415.57 200.05 415.87 200.6 415.83 200.63Z" fill="#EB996E"/>
<path d="M385.31 199C386.038 198.752 386.709 198.36 387.282 197.847C387.855 197.334 388.318 196.71 388.644 196.013C388.97 195.317 389.152 194.561 389.179 193.793C389.205 193.024 389.077 192.258 388.8 191.54C388.086 190.276 387.252 189.084 386.31 187.98C385.845 187.291 385.449 186.558 385.13 185.79L383.75 181.55C382.82 177.99 382.05 174.39 379.28 172.14C376.77 170.14 373.28 169.8 370.4 168.35C368.29 167.3 366.52 165.66 364.45 164.53C362.38 163.4 359.73 162.85 357.72 164.09C356.55 164.82 355.72 166.09 354.58 166.78C352.13 168.26 348.63 167.16 346.39 168.93C344.57 170.38 344.39 173.07 343.09 174.99C341.67 177.07 340.8 178.99 338.54 180.15C337.451 180.68 336.534 181.508 335.897 182.538C335.259 183.569 334.928 184.759 334.94 185.97C334.94 188.19 334.62 189.2 334.56 191.42C334.341 193.081 333.819 194.688 333.02 196.16C332.38 197.64 331.17 203.42 332.49 204.36L347.57 211.15C352.34 215.83 357.27 220.63 363.45 223.15L364.64 224.75C363.22 224.93 379.73 223.28 382.49 213.35C382.779 211.961 383.366 210.651 384.21 209.51C385.214 208.483 386.09 207.338 386.82 206.1C387.359 204.91 387.503 203.579 387.231 202.302C386.96 201.025 386.286 199.867 385.31 199Z" fill="#263238"/>
<path d="M369.38 215.73C372.583 212.166 375.468 208.328 378 204.26C380.549 200.174 382.041 195.517 382.34 190.71C382.34 189.99 382.11 184.94 381.42 184.71C380.92 184.56 380.53 189.01 380.11 189.32C376.27 192.5 373.481 196.767 372.11 201.56C370.688 206.163 369.779 210.908 369.4 215.71" fill="#263238"/>
<path d="M339.56 246.53C346.49 249.21 360.46 237.4 360.46 237.4L376.77 199C381.7 188 379.43 176 368.34 171.41L367.34 171.05C362.245 169.263 356.663 169.461 351.707 171.605C346.751 173.75 342.785 177.683 340.6 182.62C336.38 192.14 331.84 202.72 330.06 208C326.39 218.93 336.68 224.44 336.68 224.44C336.68 224.44 335.73 226.93 334.47 230.08C331.66 237.14 336.76 245.64 339.61 246.53H339.56Z" fill="#FFBE9D"/>
<path d="M336.63 224.44C341.663 226.184 347.091 226.448 352.27 225.2C352.27 225.2 346.05 231.91 335.53 227.13L336.63 224.44Z" fill="#EB996E"/>
<path d="M339.23 192.27C339.36 192.54 340.84 192.08 342.51 192.67C344.18 193.26 345.11 194.52 345.37 194.38C345.63 194.24 345.42 193.89 345.02 193.31C344.47 192.557 343.702 191.991 342.82 191.69C341.953 191.384 341.012 191.359 340.13 191.62C339.47 191.84 339.17 192.14 339.23 192.27Z" fill="#263238"/>
<path d="M355.67 197.31C355.79 197.58 357.27 197.12 358.94 197.71C360.61 198.3 361.55 199.57 361.8 199.43C362.05 199.29 361.85 198.93 361.45 198.36C360.904 197.601 360.135 197.032 359.25 196.73C358.382 196.426 357.44 196.405 356.56 196.67C355.91 196.88 355.6 197.19 355.67 197.31Z" fill="#263238"/>
<path d="M346.94 205.11C346.155 204.529 345.302 204.045 344.4 203.67C343.99 203.48 343.61 203.25 343.64 202.94C343.76 202.486 344.015 202.078 344.37 201.77L346.77 198.96C350.15 194.96 352.77 191.58 352.58 191.45C352.39 191.32 349.58 194.45 346.18 198.45L343.83 201.29C343.377 201.709 343.089 202.277 343.02 202.89C343.028 203.062 343.075 203.23 343.158 203.381C343.241 203.532 343.358 203.662 343.5 203.76C343.715 203.907 343.946 204.028 344.19 204.12C345.059 204.57 345.984 204.903 346.94 205.11Z" fill="#263238"/>
<path d="M351.46 208C351.19 207.89 350.56 209.71 348.55 210.45C346.54 211.19 344.68 210.32 344.55 210.57C344.42 210.82 344.86 211.07 345.67 211.38C346.729 211.764 347.89 211.764 348.95 211.38C349.967 211.009 350.799 210.255 351.27 209.28C351.63 208.55 351.59 208 351.46 208Z" fill="#263238"/>
<path d="M359.91 187.61C359.91 188.12 361.66 188.49 363.54 189.41C365.42 190.33 366.82 191.41 367.22 191.11C367.41 190.95 367.28 190.43 366.79 189.76C366.139 188.904 365.292 188.218 364.32 187.76C363.356 187.288 362.293 187.052 361.22 187.07C360.4 187.13 359.91 187.36 359.91 187.61Z" fill="#263238"/>
<path d="M343.93 182.63C344.09 183.12 345.38 183.12 346.77 183.63C348.16 184.14 349.24 184.78 349.65 184.48C349.84 184.33 349.79 183.88 349.4 183.34C348.869 182.66 348.138 182.164 347.31 181.92C346.491 181.654 345.609 181.654 344.79 181.92C344.16 182.07 343.86 182.4 343.93 182.63Z" fill="#263238"/>
<path d="M373.06 206.75C373.28 206.75 381.32 207.16 378.48 214.52C375.64 221.88 368.83 217.52 368.9 217.29C368.97 217.06 373.06 206.75 373.06 206.75Z" fill="#FFBE9D"/>
<path d="M372.23 215.37C372.23 215.37 372.32 215.51 372.5 215.69C372.625 215.814 372.773 215.913 372.936 215.98C373.099 216.046 373.274 216.081 373.45 216.08C374.34 216.08 375.45 215.08 376.02 213.8C376.284 213.168 376.4 212.484 376.36 211.8C376.381 211.543 376.34 211.285 376.239 211.048C376.138 210.811 375.98 210.602 375.78 210.44C375.648 210.345 375.487 210.299 375.324 210.31C375.162 210.321 375.008 210.388 374.89 210.5C374.71 210.67 374.7 210.83 374.66 210.83C374.62 210.83 374.55 210.65 374.72 210.36C374.833 210.196 374.999 210.076 375.19 210.02C375.319 209.98 375.454 209.967 375.588 209.98C375.722 209.994 375.852 210.035 375.97 210.1C376.245 210.281 376.471 210.527 376.628 210.817C376.785 211.107 376.868 211.431 376.87 211.76C376.937 212.517 376.817 213.28 376.52 213.98C375.9 215.45 374.61 216.54 373.43 216.44C373.21 216.421 372.996 216.352 372.806 216.24C372.616 216.127 372.453 215.974 372.33 215.79C372.17 215.55 372.2 215.37 372.23 215.37Z" fill="#EB996E"/>
<path d="M350.11 172.35C349.18 171.23 354.26 168.79 357.7 168.63C362.9 168.37 370.12 169.81 373.7 172.57C378.04 175.9 381.14 179.95 381.84 185.37C382.402 190.839 381.505 196.36 379.24 201.37C378.685 202.954 377.714 204.36 376.43 205.44C374.76 206.66 372.43 206.9 371.59 209.17C371.457 209.586 371.242 209.972 370.959 210.305C370.676 210.638 370.329 210.912 369.94 211.11C368.04 212 366.94 210.01 366.7 208.37C366.23 204.86 367.41 201.37 368.57 198.01C369.27 195.586 370.361 193.293 371.8 191.22C372.64 190.14 373.68 189.22 374.46 188.09C374.885 187.55 375.188 186.925 375.349 186.257C375.509 185.589 375.523 184.894 375.39 184.22C375.294 183.931 375.173 183.65 375.03 183.38C374.363 182.084 373.363 180.988 372.133 180.206C370.903 179.424 369.487 178.984 368.03 178.93C363.32 178.76 355.4 178.14 354.12 176.01C352.27 172.95 352.12 171.38 352.12 171.38L350.11 172.35Z" fill="#263238"/>
<path d="M373.74 171.43C372.016 169.92 370.009 168.768 367.835 168.041C365.662 167.315 363.365 167.029 361.08 167.2C359.866 167.263 358.678 167.571 357.587 168.105C356.495 168.64 355.524 169.39 354.73 170.31C353.26 172.24 353.13 175.31 354.88 176.96L354.99 177.11C357.7 179.4 359.9 179.79 363.45 179.94C366.45 180.08 369.45 179.38 372.39 179.53C375.587 179.689 378.663 180.804 381.22 182.73C379.765 178.37 377.184 174.473 373.74 171.43Z" fill="#263238"/>
<path d="M384.31 187.23C383.954 187.926 383.476 188.552 382.9 189.08C381.584 190.438 380.041 191.555 378.34 192.38C376.644 193.21 374.817 193.741 372.94 193.95C372.169 194.078 371.381 194.078 370.61 193.95C375.872 193.574 380.782 191.172 384.31 187.25V187.23Z" fill="#455A64"/>
<path d="M386.79 189.63C386.74 189.927 386.635 190.212 386.48 190.47C386.131 191.209 385.715 191.915 385.24 192.58C383.672 194.801 381.58 196.601 379.15 197.82C376.71 199.029 374.012 199.626 371.29 199.56C370.474 199.534 369.661 199.44 368.86 199.28C368.56 199.233 368.27 199.138 368 199C368 198.9 369.26 199.18 371.3 199.15C373.942 199.121 376.543 198.495 378.91 197.32C381.256 196.119 383.305 194.411 384.91 192.32C386.18 190.75 386.71 189.58 386.79 189.63Z" fill="#455A64"/>
<path d="M289.71 271L254.31 234L246.7 246L256.09 263.94C256.09 263.94 266.32 280.7 271.59 286.6C276.86 292.5 277.24 291.23 277.24 291.23L289.71 271Z" fill="#FFBE9D"/>
<path d="M241.23 223.3C241.11 223.22 234.91 222.3 232.44 221.95C231.805 221.853 231.156 221.996 230.62 222.35L226.9 224.82L223.85 231.29L224.76 231.9L223.83 237.74C224.018 237.966 224.258 238.144 224.528 238.259C224.799 238.374 225.093 238.422 225.386 238.401C225.68 238.379 225.964 238.288 226.215 238.135C226.466 237.982 226.677 237.771 226.83 237.52C227.874 236.154 228.779 234.687 229.53 233.14L233.53 233.07L233.35 233.44L229.22 234.49L227.84 238L229.07 241.63L231.85 244.17L233.05 244.12L235.31 245.48C235.31 245.48 237.6 243.48 235.66 241.48C235.66 241.48 237.53 243.32 238.56 242.6L246.96 246.42L253.57 240.04L255.36 234.96C255.36 234.96 244.83 224.64 244.19 224.15C243.248 223.729 242.252 223.443 241.23 223.3Z" fill="#FFBE9D"/>
<path d="M235.7 241.42C235.62 241.42 235.7 240.91 235.63 240.15C235.494 239.165 234.99 238.268 234.22 237.64L234.07 237.52L233.92 237.41L233.97 237.23C234.261 236.314 234.299 235.336 234.08 234.4C233.948 234.011 233.841 233.613 233.76 233.21C233.81 233.21 234.15 233.54 234.42 234.3C234.769 235.298 234.786 236.381 234.47 237.39L234.37 237.1L234.54 237.23C234.978 237.577 235.334 238.015 235.585 238.514C235.835 239.014 235.974 239.562 235.99 240.12C236 241 235.75 241.44 235.7 241.42Z" fill="#EB996E"/>
<path d="M232.71 244.12C233.025 243.763 233.27 243.349 233.43 242.9C233.537 242.34 233.513 241.762 233.36 241.212C233.208 240.663 232.93 240.155 232.55 239.73C232.33 239.42 232.09 239.13 231.86 238.84L231.77 238.73V238.59C231.921 238.181 231.959 237.738 231.88 237.308C231.801 236.879 231.607 236.479 231.32 236.15C230.88 235.65 230.46 235.5 230.49 235.43C230.52 235.36 230.97 235.43 231.56 235.92C231.937 236.278 232.203 236.738 232.326 237.243C232.448 237.749 232.422 238.279 232.25 238.77L232.2 238.52C232.44 238.8 232.68 239.1 232.92 239.42C233.347 239.975 233.657 240.611 233.83 241.29C233.972 241.864 233.938 242.467 233.73 243.02C233.4 244 232.71 244.18 232.71 244.12Z" fill="#EB996E"/>
<path d="M233.92 237.45C234 237.57 233.63 237.94 233.1 238.27C232.57 238.6 232.1 238.78 232.01 238.65C231.92 238.52 232.3 238.16 232.83 237.83C233.36 237.5 233.84 237.33 233.92 237.45Z" fill="#EB996E"/>
<path d="M235.25 242C235.1 242 234.88 241.29 234.25 240.58C233.62 239.87 233 239.5 233.05 239.36C233.1 239.22 233.98 239.42 234.66 240.25C235.34 241.08 235.39 242 235.25 242Z" fill="#EB996E"/>
<path d="M237.83 242C237.69 241.93 238.51 240.08 238.83 237.63C239.15 235.18 238.83 233.19 238.97 233.17C239.495 234.62 239.626 236.183 239.35 237.7C239.229 239.242 238.705 240.725 237.83 242Z" fill="#EB996E"/>
<path d="M229.28 227.69C229.35 227.69 229.28 228.08 229.07 228.64C228.804 229.389 228.405 230.084 227.89 230.69C227.353 231.316 226.613 231.733 225.8 231.87C225.16 231.95 224.8 231.76 224.8 231.7C224.8 231.64 225.18 231.7 225.71 231.51C226.402 231.289 227.02 230.885 227.5 230.34C227.971 229.766 228.383 229.146 228.73 228.49C229 228 229.22 227.66 229.28 227.69Z" fill="#EB996E"/>
<path d="M233.69 232.33C233.6 232.22 233.81 231.91 234.03 231.54C234.25 231.17 234.44 230.85 234.59 230.88C234.74 230.91 234.76 231.36 234.48 231.82C234.2 232.28 233.77 232.45 233.69 232.33Z" fill="#EB996E"/>
<path d="M207.81 221.94L207.91 237.09C207.91 242.18 228.41 242.01 228.15 236.95C228.15 236.65 228.05 221.8 228.05 221.8L207.81 221.94Z" fill="#455A64"/>
<path d="M227.55 224.46C228.759 224.265 229.991 224.265 231.2 224.46C232.094 224.546 232.921 224.972 233.51 225.65C233.866 226.257 234.056 226.947 234.06 227.65C234.27 228.972 234.135 230.325 233.67 231.58C233.107 232.687 232.157 233.549 231 234C229.858 234.442 228.63 234.62 227.41 234.52C227.41 233.75 227.41 232.98 227.41 232.21C228.129 232.247 228.85 232.203 229.56 232.08C230.279 231.962 230.94 231.611 231.44 231.08C232.139 230.098 232.423 228.88 232.23 227.69C232.235 227.216 232.103 226.751 231.85 226.35C231.625 226.115 231.35 225.933 231.045 225.819C230.741 225.704 230.414 225.661 230.09 225.69C229.232 225.691 228.382 225.861 227.59 226.19" fill="#455A64"/>
<path d="M220.54 191.05C220.419 191.153 220.268 191.216 220.11 191.23C219.879 191.24 219.648 191.193 219.439 191.094C219.23 190.995 219.048 190.846 218.91 190.66C218.691 190.401 218.549 190.086 218.5 189.75C218.468 189.544 218.485 189.334 218.549 189.136C218.614 188.938 218.723 188.758 218.87 188.61C219.233 188.268 219.699 188.057 220.195 188.01C220.692 187.962 221.189 188.082 221.61 188.35C222.096 188.696 222.471 189.177 222.69 189.732C222.908 190.288 222.96 190.895 222.84 191.48C222.568 192.776 221.941 193.97 221.03 194.93C220.074 195.923 219.296 197.073 218.73 198.33C218.478 199.002 218.416 199.731 218.55 200.436C218.684 201.142 219.009 201.797 219.49 202.33C220.49 203.46 221.83 204.21 222.89 205.33C223.438 205.875 223.81 206.572 223.96 207.33C224.085 208.066 223.962 208.822 223.61 209.48C222.938 210.613 221.993 211.558 220.86 212.23C219.926 212.801 219.075 213.498 218.33 214.3C217.323 215.527 216.75 217.053 216.7 218.64C216.705 219.225 216.741 219.809 216.81 220.39C216.738 220.252 216.687 220.103 216.66 219.95C216.559 219.521 216.505 219.081 216.5 218.64C216.468 216.983 217.016 215.366 218.05 214.07C218.789 213.216 219.652 212.478 220.61 211.88C221.668 211.234 222.55 210.338 223.18 209.27C223.484 208.704 223.586 208.052 223.47 207.42C223.334 206.758 223.003 206.152 222.52 205.68C221.52 204.68 220.17 203.92 219.09 202.68C218.556 202.078 218.194 201.343 218.045 200.552C217.895 199.762 217.962 198.945 218.24 198.19C218.836 196.879 219.658 195.684 220.67 194.66C221.533 193.77 222.135 192.659 222.41 191.45C222.528 190.944 222.496 190.415 222.318 189.926C222.141 189.438 221.825 189.012 221.41 188.7C221.058 188.465 220.639 188.351 220.216 188.377C219.794 188.402 219.391 188.565 219.07 188.84C218.856 189.075 218.738 189.382 218.738 189.7C218.738 190.018 218.856 190.325 219.07 190.56C219.18 190.729 219.328 190.87 219.501 190.972C219.674 191.074 219.869 191.135 220.07 191.15C220.39 191.11 220.52 191 220.54 191.05Z" fill="#263238"/>
<path d="M229 225.79L237 225.41L246.08 227.99L257.41 237.66C257.41 237.66 248.76 244.08 245.96 241.28C243.16 238.48 239.89 232.28 239.89 232.28L236.67 230.92C236.67 230.92 226.1 230.89 229 225.79Z" fill="#FFBE9D"/>
<path d="M252.2 233.2C252.039 233.11 251.888 233.003 251.75 232.88L250.5 231.88L246 228.14H246.07L236.97 225.61H237L229 226L229.22 225.87L229.15 225.99C228.894 226.359 228.757 226.796 228.757 227.245C228.757 227.694 228.894 228.132 229.15 228.5C229.775 229.164 230.576 229.636 231.46 229.86C233.155 230.346 234.907 230.601 236.67 230.62H236.72L239.93 232H240V232.07C241.216 234.405 242.575 236.663 244.07 238.83C244.61 239.6 245.07 240.18 245.39 240.57C245.573 240.757 245.737 240.961 245.88 241.18C245.669 241.027 245.475 240.853 245.3 240.66C244.794 240.122 244.316 239.558 243.87 238.97C242.293 236.839 240.872 234.597 239.62 232.26L239.73 232.36L236.5 231.02H236.59C234.774 231.022 232.966 230.769 231.22 230.27C230.238 230.02 229.349 229.492 228.66 228.75C228.312 228.314 228.134 227.767 228.16 227.21C228.203 226.671 228.368 226.148 228.64 225.68L228.7 225.54L228.77 225.42H229L237 225.06H237.08L246.14 227.69L250.55 231.56C251.02 231.99 251.41 232.35 251.73 232.63C252.05 232.91 252.22 233.18 252.2 233.2Z" fill="#EB996E"/>
<path d="M228 237.58C228 237.58 227.78 237.77 227.32 238.04C227.047 238.203 226.763 238.347 226.47 238.47C226.087 238.657 225.693 238.821 225.29 238.96C222.959 239.78 220.5 240.177 218.03 240.13C215.565 240.11 213.119 239.688 210.79 238.88C210.087 238.639 209.402 238.348 208.74 238.01C208.27 237.77 208.02 237.62 208.04 237.58C208.06 237.54 209.13 238 210.9 238.53C213.219 239.218 215.621 239.582 218.04 239.61C220.454 239.65 222.86 239.313 225.17 238.61C226.9 238.06 227.92 237.5 228 237.58Z" fill="#263238"/>
<path d="M228.11 237.45C227.833 234.853 227.736 232.24 227.82 229.63C227.718 227.018 227.795 224.401 228.05 221.8C228.315 224.397 228.412 227.01 228.34 229.62C228.43 232.232 228.354 234.847 228.11 237.45Z" fill="#263238"/>
<path d="M218.07 220.85C218.07 220.85 218 220.78 217.9 220.6C217.78 220.335 217.692 220.056 217.64 219.77C217.498 218.695 217.708 217.604 218.24 216.66C219.054 215.303 220.132 214.123 221.41 213.19C222.954 212.133 224.192 210.688 225 209C225.356 208.137 225.391 207.176 225.1 206.29C224.774 205.472 224.264 204.739 223.61 204.15C222.38 202.97 221.06 201.94 220.49 200.65C220.245 200.158 220.129 199.612 220.152 199.063C220.174 198.514 220.335 197.98 220.62 197.51C220.78 197.263 220.996 197.058 221.25 196.91C221.43 196.81 221.53 196.78 221.54 196.8C221.246 197.03 220.993 197.307 220.79 197.62C220.558 198.062 220.437 198.555 220.437 199.055C220.437 199.555 220.558 200.047 220.79 200.49C221.36 201.66 222.62 202.6 223.92 203.81C224.635 204.443 225.193 205.234 225.55 206.12C225.891 207.117 225.859 208.204 225.46 209.18C224.635 210.95 223.346 212.464 221.73 213.56C220.479 214.436 219.409 215.547 218.58 216.83C218.046 217.707 217.792 218.725 217.85 219.75C217.91 220.47 218.12 220.83 218.07 220.85Z" fill="#263238"/>
<path d="M86.4999 231.18L66.9999 216.45C66.9999 216.45 75.4299 191.7 72.0999 188.63L42.1899 225.38L71.5999 249.57L86.4999 231.18Z" fill="#951B00"/>
<g opacity="0.3">
<path d="M86.4999 231.18L66.9999 216.45C66.9999 216.45 75.4299 191.7 72.0999 188.63L42.1899 225.38L71.5999 249.57L86.4999 231.18Z" fill="black"/>
</g>
<path d="M59.3599 229.11C58.9636 229.375 58.4835 229.485 58.0112 229.419C57.539 229.352 57.1078 229.114 56.7999 228.75C56.5197 228.367 56.3976 227.89 56.459 227.419C56.5205 226.948 56.7607 226.519 57.1299 226.22C57.5466 225.928 58.0587 225.806 58.5621 225.879C59.0656 225.951 59.5225 226.213 59.8399 226.61C60.0903 227.042 60.1635 227.554 60.0442 228.039C59.9248 228.524 59.6222 228.944 59.1999 229.21" fill="#E0E0E0"/>
<g opacity="0.6">
<path d="M42.1899 225.38L45.2499 227.7L72.7899 191.6C72.7899 191.6 73.4099 189.38 72.1099 188.6L42.1899 225.38Z" fill="white"/>
</g>
<path d="M67.6899 216C67.4999 215.86 66.6899 216.69 65.3899 217.1C64.0899 217.51 62.9599 217.37 62.8999 217.59C62.8399 217.81 64.0899 218.39 65.6499 217.87C67.2099 217.35 67.8799 216.1 67.6899 216Z" fill="#263238"/>
<path d="M69.2299 210.85C69.0899 210.67 68.1499 211.2 66.8999 211.19C65.6499 211.18 64.6999 210.71 64.5599 210.89C64.4199 211.07 65.3399 212 66.8999 212C68.4599 212 69.3999 211 69.2299 210.85Z" fill="#263238"/>
<path d="M66.3999 204.91C66.2299 205.04 66.9199 206.02 68.2799 206.36C69.6399 206.7 70.7099 206.18 70.6199 205.98C70.5299 205.78 69.6199 205.88 68.4799 205.58C67.3399 205.28 66.5599 204.75 66.3999 204.91Z" fill="#263238"/>
<path d="M71.75 219.86C71.53 219.8 71.11 220.86 70.21 221.78C69.31 222.7 68.35 223.27 68.43 223.49C68.51 223.71 69.77 223.49 70.81 222.33C71.85 221.17 72 219.88 71.75 219.86Z" fill="#263238"/>
<path d="M96.0699 216.9L78.5399 199.9C78.5399 199.9 89.9999 176.36 86.9999 172.9L52.8099 205.7L78.9999 233.32L96.0699 216.9Z" fill="#951B00"/>
<path d="M69.39 211.51C68.9639 211.726 68.4732 211.777 68.0119 211.653C67.5506 211.529 67.1512 211.24 66.89 210.84C66.6611 210.423 66.5998 209.934 66.7187 209.473C66.8377 209.013 67.1278 208.614 67.53 208.36C67.9803 208.123 68.5041 208.067 68.9946 208.202C69.485 208.338 69.9054 208.655 70.17 209.09C70.3592 209.555 70.3608 210.076 70.1743 210.542C69.9878 211.008 69.6278 211.384 69.17 211.59" fill="#E0E0E0"/>
<g opacity="0.6">
<path d="M52.8099 205.7L55.5599 208.38L87.3299 175.93C87.3299 175.93 88.2199 173.81 87.0199 172.93L52.8099 205.7Z" fill="white"/>
</g>
<path d="M79.2599 199.53C79.0999 199.37 78.1899 200.09 76.8499 200.34C75.5099 200.59 74.4099 200.34 74.3199 200.53C74.2299 200.72 75.3999 201.47 77.0099 201.13C78.6199 200.79 79.4499 199.65 79.2599 199.53Z" fill="#263238"/>
<path d="M81.4299 194.61C81.3099 194.41 80.3199 194.82 79.0699 194.61C77.8199 194.4 76.9499 193.85 76.7899 194.02C76.6299 194.19 77.4299 195.23 78.9799 195.41C80.5299 195.59 81.5799 194.77 81.4299 194.61Z" fill="#263238"/>
<path d="M79.35 188.36C79.16 188.47 79.73 189.53 81.04 190.03C82.35 190.53 83.47 190.15 83.41 189.94C83.35 189.73 82.41 189.71 81.33 189.28C80.25 188.85 79.53 188.22 79.35 188.36Z" fill="#263238"/>
<path d="M82.8299 203.85C82.6099 203.77 82.0699 204.73 81.0599 205.57C80.0499 206.41 79.0599 206.82 79.0599 207.05C79.0599 207.28 80.3899 207.19 81.5599 206.18C82.7299 205.17 82.9999 203.9 82.8299 203.85Z" fill="#263238"/>
<path d="M88.4199 208.27C88.4199 208.27 141.02 249.82 150.89 251.05L162.09 252.87L184.6 262.56L254.09 299.15L275.88 314.37L287.07 335.51L288.02 348.21C288.02 348.21 237.75 354.33 230.35 349.81C222.95 345.29 159.52 297.92 156.23 294.22C152.94 290.52 93.1299 265.44 69.2899 224.38L88.4199 208.27Z" fill="#263238"/>
<path d="M61.3199 248.1C61.3199 248.1 99.4699 283.53 126.2 293.81C142.847 300.291 158.934 308.128 174.3 317.24L219.13 341.65L276.72 315.65L265.35 295.26L171.84 273.26L76.8899 225.13C76.8899 225.13 61.7299 240.7 61.3199 248.1Z" fill="#263238"/>
<path d="M250.9 326.42C253.112 322.534 256.373 319.349 260.309 317.227C264.245 315.105 268.698 314.132 273.16 314.42" fill="#263238"/>
<path d="M256 305.66C256.784 308.156 256.806 310.828 256.063 313.336C255.321 315.845 253.847 318.074 251.83 319.74" fill="#263238"/>
<path d="M222.93 282.2C223.302 282.315 223.661 282.469 224 282.66C224.67 282.99 225.63 283.48 226.81 284.11C229.17 285.36 232.38 287.17 235.81 289.3C239.24 291.43 242.36 293.47 244.54 295.01C245.63 295.77 246.54 296.4 247.1 296.86C247.428 297.071 247.73 297.319 248 297.6C247.646 297.446 247.31 297.251 247 297.02L244.35 295.31C242.11 293.86 239.02 291.87 235.55 289.74C232.08 287.61 228.91 285.74 226.55 284.43L223.82 282.84C223.498 282.665 223.199 282.45 222.93 282.2Z" fill="#455A64"/>
<path d="M233 348.65L232.55 348.37L231.26 347.49L226.26 344.06L208.1 331.39L181.2 312.54L165.32 301.39L156.93 295.49C154.11 293.49 151.19 291.53 148.17 289.61C142.12 285.85 136.04 282.42 130.39 278.76C124.74 275.1 119.39 271.45 114.3 267.89C109.21 264.33 104.45 260.94 100.05 257.64C95.9541 254.587 92.0282 251.312 88.29 247.83C82.8729 242.791 77.9843 237.212 73.7 231.18C72.94 230.12 72.29 229.18 71.7 228.31C71.11 227.44 70.7 226.76 70.32 226.18C69.94 225.6 69.69 225.18 69.49 224.85C69.29 224.52 69.22 224.38 69.22 224.38C69.22 224.38 69.34 224.53 69.53 224.82L70.4 226.12C70.78 226.7 71.25 227.4 71.83 228.23C72.41 229.06 73.06 230.01 73.83 231.06C78.1652 237.029 83.079 242.556 88.5 247.56C92.2469 251.007 96.1723 254.255 100.26 257.29C104.67 260.57 109.49 263.93 114.54 267.5C119.59 271.07 124.95 274.71 130.62 278.33C136.29 281.95 142.34 285.4 148.4 289.17C151.4 291.06 154.4 293.04 157.19 295.07L165.58 300.97L181.44 312.14L208.27 331.09L226.34 343.9L231.24 347.4L232.5 348.32C232.673 348.42 232.84 348.53 233 348.65Z" fill="#455A64"/>
<path d="M334.2 230.11C334.2 230.11 315.89 240 312.47 244.11C309.29 247.95 273.85 283.41 273.85 283.41C273.85 283.41 250.92 290.23 251.85 292.14C253.48 295.63 259.91 301.9 263.35 305.14C264.871 306.553 266.251 308.11 267.47 309.79C270.37 313.79 276.04 321.62 280.72 328.15C284.769 334.131 287.271 341.024 288 348.21L304.17 339.32C312.42 335.99 316.92 326.97 325.99 322.32L353.23 293L361.53 276.05L364.29 234.34L360.36 234.62L345.13 236.62C345.13 236.62 331.94 235.18 334.2 230.11Z" fill="#951B00"/>
<path d="M348.86 241.08L361.39 235.54C364.55 232.49 367.889 229.632 371.39 226.98C371.39 226.98 355.76 246.45 369.48 252.98C383.2 259.51 394.3 242.3 394.3 242.3C392.719 244.748 391.264 247.274 389.94 249.87C388.34 253.19 380.2 263.78 380.2 263.78C379.714 267.742 377.993 271.451 375.28 274.38C370.6 279.73 365.34 288.59 361.16 290.86C356.98 293.13 347.64 297.29 347.64 297.29C345.744 287.174 345.169 276.854 345.93 266.59C347.3 250.55 348.86 241.08 348.86 241.08Z" fill="#951B00"/>
<path d="M368.31 256.77C367.928 256.555 367.573 256.297 367.25 256C366.32 255.242 365.457 254.406 364.67 253.5C363.48 252.139 362.672 250.486 362.33 248.71C362.027 246.529 362.159 244.31 362.72 242.18C363.692 238.343 365.334 234.707 367.57 231.44C368.4 230.18 369.13 229.2 369.65 228.53C369.902 228.168 370.19 227.833 370.51 227.53C370.322 227.925 370.091 228.297 369.82 228.64C369.35 229.34 368.67 230.35 367.88 231.64C365.762 234.918 364.192 238.518 363.23 242.3C362.684 244.36 362.538 246.505 362.8 248.62C363.108 250.33 363.852 251.932 364.96 253.27C366.87 255.56 368.39 256.69 368.31 256.77Z" fill="#263238"/>
<path d="M366.44 271.92C366.288 272.012 366.127 272.089 365.96 272.15C365.64 272.28 365.16 272.48 364.53 272.71C362.744 273.353 360.867 273.711 358.97 273.77C357.638 273.786 356.322 273.485 355.13 272.89C353.757 272.162 352.659 271.007 352 269.6C350.58 266.67 350.42 263.05 350.72 259.44C350.991 256.01 351.7 252.629 352.83 249.38C353.867 246.767 355.209 244.287 356.83 241.99C358.18 239.99 359.37 238.5 360.2 237.46C360.6 236.99 360.92 236.6 361.2 236.28C361.48 235.96 361.55 235.88 361.57 235.89C361.49 236.05 361.393 236.201 361.28 236.34L360.39 237.59C359.6 238.66 358.46 240.21 357.16 242.19C355.611 244.49 354.329 246.959 353.34 249.55C352.254 252.764 351.565 256.099 351.29 259.48C351 263.05 351.16 266.6 352.49 269.39C353.092 270.711 354.102 271.804 355.37 272.51C356.501 273.087 357.751 273.392 359.02 273.4C360.882 273.368 362.731 273.072 364.51 272.52L365.96 272.05C366.114 271.988 366.275 271.944 366.44 271.92Z" fill="#263238"/>
<path d="M361.37 235.05C360.668 235.691 359.93 236.292 359.16 236.85C357.394 238.29 355.745 239.868 354.23 241.57C352.723 243.28 351.353 245.106 350.13 247.03C349.67 247.859 349.163 248.66 348.61 249.43C348.899 248.518 349.306 247.647 349.82 246.84C350.953 244.832 352.294 242.948 353.82 241.22C355.354 239.494 357.063 237.932 358.92 236.56C359.67 235.956 360.493 235.449 361.37 235.05Z" fill="#263238"/>
<g opacity="0.3">
<path d="M362.17 235.05C353.97 243.108 349.116 253.966 348.58 265.45C348.58 266.45 348.85 267.78 349.85 267.8C350.154 267.775 350.44 267.648 350.662 267.439C350.884 267.23 351.028 266.952 351.07 266.65C351.105 266.046 351.054 265.44 350.92 264.85C350.54 260.04 351.59 254.36 353.26 249.27C354.93 244.18 359 239.34 362.17 235.05Z" fill="black"/>
</g>
<g opacity="0.3">
<path d="M369.26 228.7C365.85 232.51 362.66 236.63 360.94 241.44C359.22 246.25 359.14 251.84 361.75 256.23C362.47 257.44 363.92 258.66 365.14 257.95C365.527 257.657 365.806 257.244 365.933 256.775C366.06 256.306 366.027 255.808 365.84 255.36C365.439 254.475 364.921 253.648 364.3 252.9C361.93 249.45 361.85 244.84 363.09 240.84C364.33 236.84 366.72 233.33 369.09 229.84" fill="black"/>
</g>
<g opacity="0.3">
<path d="M261.56 303.46C267.394 307.172 273.895 309.712 280.7 310.94C286.46 311.84 292.33 310.83 298.09 309.94C313.09 307.52 328.38 305.33 343.48 303.5H261.56" fill="black"/>
</g>
<path d="M316.06 348.21C316.337 348.077 316.634 347.992 316.94 347.96C317.756 347.82 318.586 347.79 319.41 347.87C322.168 348.164 324.744 349.384 326.72 351.33C327.823 352.368 328.736 353.589 329.42 354.94C329.973 356.056 330.283 357.276 330.33 358.52C330.358 359.351 330.274 360.182 330.08 360.99C330.022 361.288 329.917 361.575 329.77 361.84C329.932 360.748 329.999 359.644 329.97 358.54C329.866 357.358 329.526 356.209 328.97 355.16C328.291 353.869 327.402 352.7 326.34 351.7C324.429 349.837 321.98 348.623 319.34 348.23C318.249 348.132 317.152 348.126 316.06 348.21Z" fill="#263238"/>
<path d="M319.71 348.21H224.55C218.845 348.21 214.22 352.835 214.22 358.54V360.29C214.22 365.995 218.845 370.62 224.55 370.62H319.71C325.415 370.62 330.04 365.995 330.04 360.29V358.54C330.04 352.835 325.415 348.21 319.71 348.21Z" fill="#455A64"/>
<path d="M391.087 252.948L389.928 252.18C386.153 249.678 381.065 250.711 378.563 254.486L310.688 356.918C308.186 360.693 309.218 365.782 312.994 368.283L314.152 369.051C317.927 371.553 323.016 370.52 325.517 366.745L393.393 264.313C395.894 260.537 394.862 255.449 391.087 252.948Z" fill="#455A64"/>
<path d="M261.86 325C262.06 325 268.86 331.65 270.46 336.15C272.06 340.65 274.15 351.64 275.11 355.82C276.44 361.55 278.56 367.07 286.39 367.43L316.04 367.55C316.938 367.553 317.823 367.33 318.613 366.902C319.403 366.474 320.072 365.854 320.56 365.1L346.51 325H338.4L315.75 358.74H290.07C289.181 358.753 288.301 358.562 287.498 358.18C286.695 357.799 285.991 357.238 285.44 356.54C285.075 356.08 284.809 355.548 284.66 354.98C284.08 352.66 282.05 340.64 279.59 335.42C277.828 331.827 275.845 328.346 273.65 325H261.86Z" fill="#263238"/>
<path d="M288.89 363.15C288.892 363.513 288.786 363.868 288.586 364.171C288.385 364.473 288.1 364.709 287.765 364.849C287.43 364.989 287.061 365.026 286.705 364.955C286.349 364.885 286.023 364.711 285.766 364.454C285.509 364.198 285.335 363.871 285.265 363.515C285.194 363.159 285.231 362.79 285.371 362.455C285.511 362.12 285.747 361.835 286.05 361.634C286.352 361.434 286.707 361.328 287.07 361.33C287.553 361.33 288.016 361.522 288.357 361.863C288.698 362.205 288.89 362.667 288.89 363.15Z" fill="#455A64"/>
<path d="M317.57 363.15C317.572 363.513 317.466 363.868 317.266 364.171C317.065 364.473 316.78 364.709 316.445 364.849C316.11 364.989 315.741 365.026 315.385 364.955C315.029 364.885 314.702 364.711 314.446 364.454C314.189 364.198 314.015 363.871 313.945 363.515C313.874 363.159 313.911 362.79 314.051 362.455C314.191 362.12 314.427 361.835 314.729 361.634C315.032 361.434 315.387 361.328 315.75 361.33C316.232 361.333 316.693 361.525 317.034 361.866C317.375 362.207 317.567 362.668 317.57 363.15Z" fill="#455A64"/>
<path d="M351.81 319.52H255.15C253.747 319.52 252.61 320.657 252.61 322.06V322.49C252.61 323.893 253.747 325.03 255.15 325.03H351.81C353.213 325.03 354.35 323.893 354.35 322.49V322.06C354.35 320.657 353.213 319.52 351.81 319.52Z" fill="#263238"/>
<path d="M294.88 319.52H294.62H293.88L290.98 319.58L280.14 319.71C275.51 319.71 269.94 319.8 263.65 319.78H258.79C257.15 319.78 255.35 319.45 253.92 320.3C253.576 320.494 253.304 320.792 253.142 321.152C252.98 321.512 252.937 321.914 253.02 322.3C253.118 322.701 253.315 323.071 253.593 323.377C253.871 323.682 254.22 323.914 254.61 324.05C256.314 324.672 258.133 324.915 259.94 324.76H279.6L330.31 324.84L345.68 324.92L349.86 324.97H350.94C351.063 324.956 351.187 324.956 351.31 324.97H350.94H349.86L345.68 325.02L330.31 325.1L279.6 325.18H260C258.11 325.353 256.205 325.093 254.43 324.42C253.969 324.253 253.558 323.973 253.233 323.606C252.908 323.239 252.68 322.797 252.57 322.32C252.57 322.08 252.51 321.85 252.52 321.59C252.55 321.344 252.617 321.105 252.72 320.88C252.943 320.437 253.291 320.068 253.72 319.82C254.517 319.386 255.413 319.166 256.32 319.18C257.2 319.18 258.02 319.24 258.85 319.25L263.7 319.32H280.19H291H293.9H294.64L294.88 319.52Z" fill="#455A64"/>
<path d="M273.85 350C273.697 349.664 273.583 349.312 273.51 348.95C273.3 348.16 273.05 347.19 272.76 346.05C272.02 342.84 271.098 339.675 270 336.57C269.363 334.885 268.594 333.253 267.7 331.69C266.937 330.432 266.078 329.235 265.13 328.11C263.48 326.2 262.26 325.21 262.33 325.11C262.648 325.3 262.946 325.521 263.22 325.77C264.002 326.402 264.731 327.098 265.4 327.85C266.413 328.953 267.32 330.148 268.11 331.42C269.047 332.997 269.844 334.653 270.49 336.37C271.603 339.49 272.482 342.689 273.12 345.94C273.38 347.18 273.58 348.19 273.71 348.89C273.803 349.252 273.85 349.625 273.85 350Z" fill="#455A64"/>
<path d="M277.32 370.62H270.87V451.91H277.32V370.62Z" fill="#263238"/>
<path d="M276.01 438.88L343.04 452.07V459.07L276.01 448.98V438.88Z" fill="#263238"/>
<path d="M337.1 470.06C340.38 470.06 343.04 467.401 343.04 464.12C343.04 460.84 340.38 458.18 337.1 458.18C333.819 458.18 331.16 460.84 331.16 464.12C331.16 467.401 333.819 470.06 337.1 470.06Z" fill="#263238"/>
<path d="M274.28 438.88L220.05 452.12V459.12L274.28 448.34V438.88Z" fill="#263238"/>
<path d="M225.99 470.06C229.271 470.06 231.93 467.401 231.93 464.12C231.93 460.84 229.271 458.18 225.99 458.18C222.709 458.18 220.05 460.84 220.05 464.12C220.05 467.401 222.709 470.06 225.99 470.06Z" fill="#263238"/>
<path d="M274.11 470.06C277.39 470.06 280.05 467.401 280.05 464.12C280.05 460.84 277.39 458.18 274.11 458.18C270.829 458.18 268.17 460.84 268.17 464.12C268.17 467.401 270.829 470.06 274.11 470.06Z" fill="#263238"/>
<path d="M280.87 458.18H267.42L267.55 407.33H281.01L280.87 458.18Z" fill="#263238"/>
<path d="M280.51 407.44C278.397 407.697 276.267 407.784 274.14 407.7C272.016 407.784 269.89 407.697 267.78 407.44C269.89 407.183 272.016 407.096 274.14 407.18C276.267 407.096 278.397 407.183 280.51 407.44Z" fill="#455A64"/>
<path d="M280.09 449.57C277.977 449.827 275.847 449.914 273.72 449.83C271.593 449.914 269.463 449.827 267.35 449.57C269.463 449.313 271.593 449.226 273.72 449.31C275.847 449.226 277.977 449.313 280.09 449.57Z" fill="#455A64"/>
<path d="M366.61 289.53H48.05V303.46H366.61V289.53Z" fill="#455A64"/>
<path d="M115.53 289.73C115.53 289.73 115.53 289.79 115.43 289.88C115.33 289.97 115.25 290.12 115.1 290.3C114.637 290.808 114.097 291.24 113.5 291.58C112.541 292.095 111.498 292.433 110.42 292.58C109 292.782 107.563 292.842 106.13 292.76C104.396 292.674 102.669 292.476 100.96 292.17C99.014 291.809 97.0465 291.576 95.0701 291.47C90.5351 291.494 86.0447 292.366 81.8301 294.04C77.2801 295.7 73.0001 297.55 69.0001 298.67C67.0828 299.223 65.1227 299.614 63.1401 299.84C61.4081 300.02 59.6621 300.02 57.9301 299.84C55.4138 299.595 52.9792 298.814 50.7901 297.55C49.9871 297.095 49.2446 296.541 48.5801 295.9C48.5801 295.9 48.6401 295.9 48.7401 296L49.1601 296.31C49.7038 296.719 50.2751 297.09 50.8701 297.42C53.0595 298.617 55.474 299.346 57.9601 299.56C59.6721 299.739 61.3981 299.739 63.1101 299.56C65.0728 299.328 67.0129 298.934 68.9101 298.38C72.9101 297.24 77.1601 295.38 81.7301 293.76C85.9915 292.068 90.5351 291.199 95.1201 291.2C97.1075 291.316 99.0851 291.564 101.04 291.94C102.736 292.255 104.449 292.469 106.17 292.58C107.584 292.672 109.004 292.629 110.41 292.45C111.457 292.309 112.472 291.987 113.41 291.5C114.215 291.039 114.932 290.439 115.53 289.73Z" fill="#263238"/>
<path d="M80.68 289.94C80.3777 290.252 80.0424 290.531 79.68 290.77C78.7621 291.471 77.7889 292.097 76.77 292.64C75.2558 293.442 73.6644 294.089 72.02 294.57C69.9987 295.156 67.9131 295.492 65.81 295.57C61.979 295.719 58.1694 294.933 54.71 293.28C53.6458 292.789 52.7237 292.035 52.03 291.09C51.849 290.83 51.7012 290.547 51.59 290.25C51.52 290.05 51.49 289.94 51.51 289.93C51.6966 290.302 51.9105 290.66 52.15 291C52.8742 291.868 53.7923 292.553 54.83 293C58.2814 294.557 62.0465 295.293 65.83 295.15C69.6049 295.034 73.3085 294.092 76.68 292.39C77.6956 291.869 78.6775 291.284 79.62 290.64C79.9557 290.381 80.31 290.147 80.68 289.94Z" fill="#263238"/>
<path d="M155.43 298.77C155.6 298.821 155.767 298.881 155.93 298.95C157.067 299.356 158.276 299.523 159.48 299.441C160.685 299.358 161.859 299.028 162.93 298.47V298.65C160.919 297.126 158.515 296.207 156 296C152.817 295.687 149.627 296.516 147 298.34C146.829 298.435 146.678 298.564 146.558 298.718C146.438 298.873 146.35 299.05 146.3 299.24C146.303 299.432 146.362 299.619 146.468 299.778C146.574 299.938 146.724 300.063 146.9 300.14C147.287 300.352 147.706 300.5 148.14 300.58L149.49 300.88C151.32 301.29 153.2 301.69 155.15 301.98C157.134 302.294 159.142 302.431 161.15 302.39C162.186 302.359 163.218 302.259 164.24 302.09C164.75 302 165.24 301.9 165.78 301.77C166.289 301.662 166.785 301.501 167.26 301.29C168.009 300.99 168.672 300.509 169.19 299.89C169.434 299.597 169.597 299.245 169.662 298.87C169.727 298.494 169.692 298.108 169.56 297.75C169.251 297.04 168.721 296.447 168.05 296.06C167.379 295.656 166.669 295.32 165.93 295.06C163.099 293.985 160.115 293.364 157.09 293.22C151.957 292.912 146.817 293.682 142 295.48C138.753 296.718 135.694 298.401 132.91 300.48C131.91 301.23 131.19 301.82 130.71 302.26L130.15 302.74C130.03 302.85 129.96 302.9 129.95 302.89L130.13 302.71L130.66 302.2C131.12 301.75 131.86 301.13 132.82 300.36C135.588 298.227 138.649 296.506 141.91 295.25C146.753 293.367 151.941 292.535 157.13 292.81C160.209 292.943 163.246 293.564 166.13 294.65C166.89 294.935 167.62 295.294 168.31 295.72C169.054 296.151 169.64 296.81 169.98 297.6C170.134 298.02 170.175 298.472 170.099 298.912C170.024 299.353 169.835 299.765 169.55 300.11C168.995 300.782 168.28 301.305 167.47 301.63C166.972 301.849 166.452 302.016 165.92 302.13C165.4 302.27 164.92 302.37 164.35 302.46C163.311 302.63 162.262 302.73 161.21 302.76C159.175 302.8 157.14 302.656 155.13 302.33C153.13 302.04 151.28 301.63 149.45 301.22L148.1 300.91C147.632 300.818 147.18 300.656 146.76 300.43C146.54 300.309 146.349 300.142 146.2 299.94C146.045 299.722 145.974 299.456 146 299.19C146.052 298.95 146.153 298.724 146.298 298.526C146.443 298.328 146.627 298.162 146.84 298.04C149.535 296.183 152.806 295.353 156.06 295.7C158.614 295.948 161.043 296.923 163.06 298.51L163.19 298.61L163.04 298.69C161.289 299.595 159.281 299.873 157.35 299.48C156.676 299.35 156.027 299.11 155.43 298.77Z" fill="#263238"/>
<path d="M196.42 290.09C196.572 290.303 196.681 290.544 196.74 290.8C196.947 291.476 197.019 292.186 196.95 292.89C196.632 295.208 195.539 297.351 193.85 298.97C192.986 299.904 192.012 300.73 190.95 301.43C190.073 301.99 189.133 302.447 188.15 302.79C187.498 303.009 186.829 303.176 186.15 303.29C185.9 303.343 185.645 303.366 185.39 303.36C185.39 303.29 186.46 303.14 188.09 302.52C189.035 302.156 189.937 301.69 190.78 301.13C191.806 300.429 192.749 299.614 193.59 298.7C195.228 297.138 196.318 295.09 196.7 292.86C196.785 291.927 196.69 290.987 196.42 290.09Z" fill="#263238"/>
<path d="M253.63 302.72C253.63 302.72 253.18 302.14 252.17 301.3C250.734 300.119 249.007 299.345 247.17 299.06C245.91 298.876 244.628 298.91 243.38 299.16C241.927 299.506 240.432 299.644 238.94 299.57C237.287 299.282 235.751 298.529 234.51 297.4C233.19 296.273 231.684 295.383 230.06 294.77C226.863 293.696 223.411 293.64 220.18 294.61C217.548 295.405 215.077 296.658 212.88 298.31C211.385 299.418 209.968 300.627 208.64 301.93L207.57 303C207.45 303.13 207.319 303.25 207.18 303.36C207.275 303.209 207.386 303.068 207.51 302.94C207.74 302.68 208.08 302.3 208.51 301.82C209.804 300.469 211.201 299.222 212.69 298.09C214.898 296.384 217.394 295.087 220.06 294.26C223.362 293.248 226.898 293.297 230.17 294.4C231.834 295.025 233.374 295.939 234.72 297.1C235.908 298.187 237.377 298.918 238.96 299.21C240.42 299.287 241.884 299.163 243.31 298.84C244.594 298.596 245.91 298.576 247.2 298.78C249.057 299.106 250.788 299.94 252.2 301.19C252.751 301.626 253.233 302.141 253.63 302.72Z" fill="#263238"/>
<path d="M304.7 289.66C304.597 289.83 304.48 289.99 304.35 290.14C304.11 290.43 303.78 290.9 303.27 291.43C301.869 292.966 300.31 294.35 298.62 295.56C296.127 297.381 293.416 298.883 290.55 300.03C288.864 300.732 287.121 301.288 285.34 301.69C283.433 302.153 281.482 302.404 279.52 302.44C275.738 302.41 272 301.631 268.52 300.15C265.673 298.971 262.986 297.439 260.52 295.59C258.85 294.359 257.306 292.965 255.91 291.43C255.524 291.017 255.16 290.583 254.82 290.13C254.689 289.985 254.572 289.827 254.47 289.66C254.618 289.789 254.755 289.93 254.88 290.08C255.14 290.36 255.49 290.81 256.02 291.32C257.449 292.811 259.012 294.166 260.69 295.37C263.163 297.175 265.85 298.666 268.69 299.81C272.142 301.263 275.845 302.024 279.59 302.05C281.524 302.014 283.449 301.769 285.33 301.32C287.087 300.919 288.809 300.377 290.48 299.7C293.311 298.572 295.997 297.108 298.48 295.34C300.172 294.161 301.746 292.822 303.18 291.34C303.71 290.83 304.06 290.34 304.32 290.1C304.434 289.943 304.561 289.796 304.7 289.66Z" fill="#263238"/>
<path d="M297.41 289.53C297.323 289.611 297.229 289.685 297.13 289.75C296.95 289.88 296.68 290.08 296.31 290.31C295.281 290.969 294.216 291.57 293.12 292.11C291.51 292.925 289.838 293.61 288.12 294.16C285.996 294.867 283.778 295.248 281.54 295.29C277.471 295.179 273.479 294.154 269.86 292.29C268.765 291.745 267.709 291.123 266.7 290.43C266.34 290.19 266.08 289.98 265.89 289.84C265.7 289.7 265.62 289.62 265.63 289.61C266.028 289.814 266.413 290.045 266.78 290.3C267.813 290.94 268.881 291.521 269.98 292.04C273.589 293.789 277.531 294.748 281.54 294.85C283.737 294.801 285.916 294.438 288.01 293.77C289.724 293.229 291.396 292.561 293.01 291.77C294.4 291.11 295.49 290.52 296.24 290.08C296.618 289.871 297.008 289.688 297.41 289.53Z" fill="#263238"/>
<path d="M353.12 291C352.907 291.024 352.693 291.024 352.48 291L350.69 290.93L349.39 290.87H347.85C346.74 290.87 345.48 290.87 344.09 290.87L341.9 290.94L339.55 291.1C337.91 291.18 336.2 291.41 334.38 291.58C330.78 292.04 326.88 292.68 322.91 293.58C319.276 294.417 315.688 295.442 312.16 296.65C310.62 297.23 309.1 297.74 307.8 298.32L305.87 299.12L304.17 299.92C303.06 300.41 302.17 300.92 301.33 301.35L300.18 301.95L299.28 302.49L298.01 303.24C297.858 303.335 297.697 303.415 297.53 303.48C297.53 303.48 297.64 303.37 297.9 303.18L299.09 302.39L299.95 301.82L301.07 301.19C301.87 300.74 302.77 300.19 303.86 299.71L305.55 298.88L307.47 298.05C308.77 297.46 310.29 296.93 311.84 296.34C315.389 295.107 319.001 294.062 322.66 293.21C326.66 292.31 330.66 291.68 334.26 291.21C336.1 291.04 337.83 290.83 339.48 290.76L341.86 290.62L344.07 290.57C345.47 290.57 346.74 290.57 347.86 290.57H349.41L350.71 290.66L352.5 290.8C352.712 290.848 352.92 290.915 353.12 291Z" fill="#263238"/>
<path d="M259.35 302.44C258.833 301.694 258.247 300.997 257.6 300.36C255.762 298.69 253.566 297.462 251.18 296.77C249.543 296.279 247.872 295.911 246.18 295.67C244.35 295.38 242.39 295.15 240.32 294.79C238.18 294.401 236.069 293.87 234 293.2C231.789 292.466 229.522 291.918 227.22 291.56C222.73 291.104 218.197 291.731 214 293.39C212.159 294.082 210.362 294.887 208.62 295.8C206.97 296.65 205.46 297.48 204.09 298.25C201.35 299.8 199.17 301.13 197.66 302.04L195.93 303.1L195.48 303.38L195.32 303.46C195.32 303.46 195.32 303.46 195.46 303.34L195.89 303.04C196.27 302.77 196.84 302.39 197.58 301.91C199.06 300.91 201.23 299.6 203.95 298.01C205.32 297.22 206.83 296.37 208.47 295.51C210.219 294.583 212.022 293.761 213.87 293.05C218.12 291.351 222.717 290.706 227.27 291.17C229.593 291.528 231.881 292.084 234.11 292.83C236.18 293.502 238.291 294.04 240.43 294.44C242.43 294.8 244.43 295.04 246.27 295.35C247.964 295.611 249.635 295.998 251.27 296.51C253.685 297.231 255.895 298.513 257.72 300.25C258.384 300.882 258.935 301.623 259.35 302.44Z" fill="#263238"/>
<path d="M187.6 289.73C187.644 290.025 187.644 290.325 187.6 290.62C187.493 291.426 187.285 292.216 186.98 292.97C186.017 295.504 184.313 297.689 182.09 299.24C179.814 300.643 177.376 301.765 174.83 302.58C173.83 302.9 173.06 303.13 172.51 303.28C172.227 303.37 171.935 303.43 171.64 303.46C171.903 303.318 172.181 303.207 172.47 303.13L174.74 302.32C177.23 301.437 179.62 300.294 181.87 298.91C184.017 297.404 185.697 295.325 186.72 292.91C187.11 291.879 187.404 290.815 187.6 289.73Z" fill="#263238"/>
<path d="M113.65 303.46C113.881 303.185 114.139 302.934 114.42 302.71C114.94 302.25 115.71 301.61 116.69 300.86C119.265 298.912 121.983 297.161 124.82 295.62C128.13 293.8 131.22 292.35 133.46 291.31C134.59 290.8 135.46 290.39 136.14 290.12C136.462 289.963 136.797 289.833 137.14 289.73C136.846 289.938 136.531 290.116 136.2 290.26L133.58 291.57C131.37 292.66 128.3 294.15 125.01 295.96C122.193 297.501 119.471 299.211 116.86 301.08C115.86 301.8 115.06 302.4 114.52 302.83C114.25 303.066 113.959 303.277 113.65 303.46Z" fill="#263238"/>
<path d="M128.66 290.3C128.66 290.35 127.92 290.21 126.6 290.3C124.743 290.49 122.94 291.037 121.29 291.91C118.858 293.256 116.546 294.808 114.38 296.55C113.061 297.541 111.674 298.44 110.23 299.24C108.643 300.069 106.965 300.71 105.23 301.15C101.897 301.939 98.4855 302.352 95.0601 302.38C91.9101 302.47 89.0601 302.38 86.7101 302.5C84.8367 302.56 82.9693 302.743 81.1201 303.05C80.4701 303.17 79.9701 303.27 79.6301 303.35C79.4569 303.4 79.2795 303.433 79.1001 303.45C79.2612 303.367 79.4327 303.307 79.6101 303.27C79.9401 303.17 80.4401 303.05 81.1001 302.9C82.9465 302.531 84.8189 302.307 86.7001 302.23C89.0801 302.09 91.9101 302.13 95.0501 302.02C98.4482 301.97 101.831 301.554 105.14 300.78C106.835 300.338 108.475 299.707 110.03 298.9C111.465 298.116 112.842 297.23 114.15 296.25C116.343 294.518 118.685 292.985 121.15 291.67C122.835 290.8 124.679 290.282 126.57 290.15C127.082 290.104 127.598 290.104 128.11 290.15L128.66 290.3Z" fill="#263238"/>
<path d="M77.36 470.41H72.83L70.25 302.38H79.93L77.36 470.41Z" fill="#455A64"/>
<path d="M369.2 470.06H364.68L366.94 302.86H376.62L369.2 470.06Z" fill="#263238"/>
<path d="M391.81 289.52H351.42V303.45H391.81V289.52Z" fill="#263238"/>
<path d="M157.66 246.39L176 286.89C176.493 287.771 177.201 288.514 178.057 289.048C178.914 289.583 179.892 289.893 180.9 289.95L265.38 289.84C265.277 288.983 264.868 288.191 264.229 287.611C263.59 287.031 262.763 286.7 261.9 286.68L229.84 285.98L213.4 246.6C213.146 245.985 212.717 245.459 212.165 245.087C211.614 244.715 210.965 244.515 210.3 244.51L159.14 244.12C158.869 244.115 158.602 244.179 158.363 244.306C158.123 244.433 157.92 244.619 157.773 244.846C157.625 245.073 157.537 245.333 157.517 245.603C157.497 245.873 157.547 246.144 157.66 246.39Z" fill="#E0E0E0"/>
<path d="M157.66 246.39C157.577 246.246 157.526 246.086 157.51 245.92C157.476 245.674 157.498 245.423 157.577 245.188C157.655 244.952 157.786 244.737 157.96 244.56C158.225 244.286 158.58 244.116 158.96 244.08C159.37 244.08 159.8 244.08 160.27 244.08H163.53L184.59 244.16L199.38 244.24L207.7 244.29H209.87C210.644 244.233 211.418 244.4 212.1 244.77C212.791 245.169 213.332 245.784 213.64 246.52L214.51 248.61C219.22 259.88 224.51 272.42 230.07 285.87L229.85 285.72L247.18 286.09L256.18 286.29L260.76 286.39H261.92C262.543 286.412 263.151 286.585 263.693 286.893C264.234 287.201 264.693 287.636 265.03 288.16C265.342 288.651 265.543 289.204 265.62 289.78V290.07H265.33H212.71H181.94C181.51 290.07 181.1 290.07 180.66 290.07C180.225 290.046 179.794 289.966 179.38 289.83C178.571 289.588 177.823 289.177 177.183 288.626C176.544 288.075 176.028 287.394 175.67 286.63C175.003 285.17 174.363 283.747 173.75 282.36C168.75 271.23 164.75 262.24 161.92 256C160.55 252.9 159.47 250.49 158.74 248.83C158.38 248.02 158.11 247.4 157.92 246.96C157.73 246.52 157.66 246.32 157.66 246.32C157.66 246.32 157.77 246.53 157.97 246.94L158.83 248.79L162.11 255.92L174.11 282.21L176.05 286.47C176.384 287.19 176.869 287.83 177.471 288.347C178.073 288.865 178.778 289.248 179.54 289.47C180.33 289.69 181.153 289.768 181.97 289.7H189.84L212.77 289.64L265.38 289.55L265.12 289.84C265.055 289.343 264.884 288.866 264.62 288.44C264.23 287.831 263.65 287.367 262.97 287.12C262.634 286.991 262.279 286.92 261.92 286.91H260.77L256.19 286.8L247.19 286.6L229.87 286.22H229.7L229.64 286.07C224.05 272.62 218.83 260.07 214.14 248.79L213.27 246.69C213 246.041 212.526 245.497 211.92 245.14C211.307 244.811 210.614 244.662 209.92 244.71H207.75L199.44 244.64L184.65 244.49L163.59 244.26L160.33 244.21C159.86 244.21 159.42 244.21 159.04 244.21C158.69 244.245 158.363 244.396 158.11 244.64C157.941 244.807 157.811 245.009 157.73 245.232C157.648 245.455 157.618 245.694 157.64 245.93C157.634 246.084 157.64 246.238 157.66 246.39Z" fill="#263238"/>
<path d="M228.24 290.3C228.14 290.165 228.06 290.017 228 289.86C227.83 289.51 227.63 289.07 227.39 288.55L225.24 283.7C223.46 279.59 221.03 273.9 218.42 267.58C215.81 261.26 213.51 255.52 211.91 251.33C211.12 249.24 210.48 247.54 210.07 246.33C209.89 245.78 209.74 245.33 209.61 244.96C209.543 244.804 209.499 244.639 209.48 244.47C209.578 244.608 209.656 244.76 209.71 244.92C209.86 245.28 210.04 245.72 210.27 246.25L212.27 251.17C214 255.38 216.33 261.07 218.92 267.35C221.51 273.63 223.86 279.35 225.59 283.53C226.41 285.53 227.08 287.21 227.59 288.44L228.11 289.79C228.184 289.951 228.228 290.124 228.24 290.3Z" fill="#455A64"/>
<path d="M195.11 266C195.11 266.519 194.956 267.025 194.668 267.457C194.379 267.888 193.97 268.223 193.49 268.421C193.011 268.619 192.484 268.671 191.975 268.569C191.467 268.467 191 268.216 190.634 267.849C190.268 267.482 190.019 267.014 189.919 266.505C189.819 265.996 189.872 265.469 190.072 264.99C190.272 264.512 190.61 264.103 191.042 263.817C191.474 263.53 191.981 263.378 192.5 263.38C192.844 263.38 193.184 263.448 193.501 263.58C193.818 263.711 194.107 263.904 194.349 264.148C194.592 264.391 194.784 264.68 194.914 264.998C195.045 265.316 195.111 265.656 195.11 266Z" fill="white"/>
<path d="M85.032 33L95.24 10.44H98.6L108.808 33H104.648L102.408 27.784H91.4L89.192 33H85.032ZM96.872 14.888L92.808 24.52H101L96.936 14.888H96.872ZM119.518 33V10.44H123.518V19.624C124.051 18.7707 124.766 18.1307 125.661 17.704C126.558 17.256 127.55 17.032 128.638 17.032C132.328 17.032 134.174 19.176 134.174 23.464V33H130.174V23.656C130.174 22.44 129.939 21.5547 129.47 21C129.022 20.4453 128.318 20.168 127.358 20.168C126.184 20.168 125.246 20.5413 124.542 21.288C123.859 22.0133 123.518 22.984 123.518 24.2V33H119.518ZM145.372 33.32C143.751 33.32 142.343 32.9893 141.148 32.328C139.954 31.6667 139.026 30.728 138.364 29.512C137.703 28.2747 137.372 26.824 137.372 25.16C137.372 23.496 137.703 22.056 138.364 20.84C139.026 19.624 139.954 18.6853 141.148 18.024C142.343 17.3627 143.751 17.032 145.372 17.032C146.994 17.032 148.402 17.3627 149.596 18.024C150.791 18.6853 151.719 19.624 152.38 20.84C153.042 22.056 153.372 23.496 153.372 25.16C153.372 26.824 153.042 28.2747 152.38 29.512C151.719 30.728 150.791 31.6667 149.596 32.328C148.402 32.9893 146.994 33.32 145.372 33.32ZM145.372 30.28C146.567 30.28 147.527 29.8533 148.252 29C148.978 28.1253 149.34 26.8453 149.34 25.16C149.34 23.4533 148.978 22.184 148.252 21.352C147.527 20.4987 146.567 20.072 145.372 20.072C144.178 20.072 143.218 20.4987 142.492 21.352C141.767 22.184 141.404 23.4533 141.404 25.16C141.404 26.8453 141.767 28.1253 142.492 29C143.218 29.8533 144.178 30.28 145.372 30.28ZM156.674 33V17.352H160.578V20.104C161.346 18.248 162.988 17.224 165.506 17.032L166.722 16.936L166.978 20.328L164.674 20.552C162.05 20.808 160.738 22.152 160.738 24.584V33H156.674ZM174.201 33.32C173.07 33.32 172.057 33.1067 171.161 32.68C170.286 32.232 169.593 31.6347 169.081 30.888C168.59 30.1413 168.345 29.2987 168.345 28.36C168.345 27.208 168.643 26.3013 169.241 25.64C169.838 24.9573 170.809 24.4667 172.153 24.168C173.497 23.8693 175.299 23.72 177.561 23.72H178.681V23.048C178.681 21.9813 178.446 21.2133 177.977 20.744C177.507 20.2747 176.718 20.04 175.609 20.04C174.734 20.04 173.838 20.1787 172.921 20.456C172.003 20.712 171.075 21.1173 170.137 21.672L168.985 18.952C169.539 18.568 170.19 18.2373 170.937 17.96C171.705 17.6613 172.505 17.4373 173.337 17.288C174.19 17.1173 174.99 17.032 175.737 17.032C178.019 17.032 179.715 17.5653 180.825 18.632C181.934 19.6773 182.489 21.3093 182.489 23.528V33H178.745V30.504C178.382 31.3787 177.806 32.072 177.017 32.584C176.227 33.0747 175.289 33.32 174.201 33.32ZM175.033 30.568C176.078 30.568 176.942 30.2053 177.625 29.48C178.329 28.7547 178.681 27.8373 178.681 26.728V26.024H177.593C175.587 26.024 174.19 26.184 173.401 26.504C172.633 26.8027 172.249 27.3573 172.249 28.168C172.249 28.872 172.494 29.448 172.985 29.896C173.475 30.344 174.158 30.568 175.033 30.568ZM201.19 33.32C199.824 33.32 198.619 32.9893 197.574 32.328C196.55 31.6667 195.75 30.728 195.174 29.512C194.598 28.2747 194.31 26.824 194.31 25.16C194.31 23.4747 194.598 22.0347 195.174 20.84C195.75 19.624 196.55 18.6853 197.574 18.024C198.619 17.3627 199.824 17.032 201.19 17.032C202.299 17.032 203.302 17.2773 204.198 17.768C205.094 18.2587 205.766 18.9093 206.214 19.72V10.44H210.214V33H206.31V30.408C205.883 31.304 205.211 32.0187 204.294 32.552C203.376 33.064 202.342 33.32 201.19 33.32ZM202.31 30.28C203.504 30.28 204.464 29.8533 205.19 29C205.915 28.1253 206.278 26.8453 206.278 25.16C206.278 23.4533 205.915 22.184 205.19 21.352C204.464 20.4987 203.504 20.072 202.31 20.072C201.115 20.072 200.155 20.4987 199.43 21.352C198.704 22.184 198.342 23.4533 198.342 25.16C198.342 26.8453 198.704 28.1253 199.43 29C200.155 29.8533 201.115 30.28 202.31 30.28ZM221.497 33.32C219.876 33.32 218.468 32.9893 217.273 32.328C216.079 31.6667 215.151 30.728 214.489 29.512C213.828 28.2747 213.497 26.824 213.497 25.16C213.497 23.496 213.828 22.056 214.489 20.84C215.151 19.624 216.079 18.6853 217.273 18.024C218.468 17.3627 219.876 17.032 221.497 17.032C223.119 17.032 224.527 17.3627 225.721 18.024C226.916 18.6853 227.844 19.624 228.505 20.84C229.167 22.056 229.497 23.496 229.497 25.16C229.497 26.824 229.167 28.2747 228.505 29.512C227.844 30.728 226.916 31.6667 225.721 32.328C224.527 32.9893 223.119 33.32 221.497 33.32ZM221.497 30.28C222.692 30.28 223.652 29.8533 224.377 29C225.103 28.1253 225.465 26.8453 225.465 25.16C225.465 23.4533 225.103 22.184 224.377 21.352C223.652 20.4987 222.692 20.072 221.497 20.072C220.303 20.072 219.343 20.4987 218.617 21.352C217.892 22.184 217.529 23.4533 217.529 25.16C217.529 26.8453 217.892 28.1253 218.617 29C219.343 29.8533 220.303 30.28 221.497 30.28ZM248.656 33.32C247.013 33.32 245.584 32.9893 244.368 32.328C243.152 31.6453 242.213 30.6853 241.552 29.448C240.89 28.2107 240.56 26.76 240.56 25.096C240.56 23.432 240.89 22.0027 241.552 20.808C242.213 19.592 243.152 18.664 244.368 18.024C245.584 17.3627 247.013 17.032 248.656 17.032C249.658 17.032 250.65 17.192 251.632 17.512C252.613 17.832 253.424 18.28 254.064 18.856L252.88 21.64C252.325 21.1493 251.696 20.776 250.992 20.52C250.309 20.264 249.648 20.136 249.008 20.136C247.621 20.136 246.544 20.5733 245.776 21.448C245.029 22.3013 244.656 23.528 244.656 25.128C244.656 26.7067 245.029 27.9547 245.776 28.872C246.544 29.768 247.621 30.216 249.008 30.216C249.626 30.216 250.288 30.088 250.992 29.832C251.696 29.576 252.325 29.192 252.88 28.68L254.064 31.496C253.424 32.0507 252.602 32.4987 251.6 32.84C250.618 33.16 249.637 33.32 248.656 33.32ZM261.576 33.32C260.445 33.32 259.432 33.1067 258.536 32.68C257.661 32.232 256.968 31.6347 256.456 30.888C255.965 30.1413 255.72 29.2987 255.72 28.36C255.72 27.208 256.018 26.3013 256.616 25.64C257.213 24.9573 258.184 24.4667 259.528 24.168C260.872 23.8693 262.674 23.72 264.936 23.72H266.056V23.048C266.056 21.9813 265.821 21.2133 265.352 20.744C264.882 20.2747 264.093 20.04 262.984 20.04C262.109 20.04 261.213 20.1787 260.296 20.456C259.378 20.712 258.45 21.1173 257.512 21.672L256.36 18.952C256.914 18.568 257.565 18.2373 258.312 17.96C259.08 17.6613 259.88 17.4373 260.712 17.288C261.565 17.1173 262.365 17.032 263.112 17.032C265.394 17.032 267.09 17.5653 268.2 18.632C269.309 19.6773 269.864 21.3093 269.864 23.528V33H266.12V30.504C265.757 31.3787 265.181 32.072 264.392 32.584C263.602 33.0747 262.664 33.32 261.576 33.32ZM262.408 30.568C263.453 30.568 264.317 30.2053 265 29.48C265.704 28.7547 266.056 27.8373 266.056 26.728V26.024H264.968C262.962 26.024 261.565 26.184 260.776 26.504C260.008 26.8027 259.624 27.3573 259.624 28.168C259.624 28.872 259.869 29.448 260.36 29.896C260.85 30.344 261.533 30.568 262.408 30.568ZM274.98 33V20.36H271.972V17.352H274.98V17.32C274.98 15.1013 275.556 13.4267 276.708 12.296C277.881 11.1653 279.694 10.5253 282.148 10.376L283.716 10.28L283.972 13.224L282.5 13.32C281.22 13.4053 280.313 13.7253 279.78 14.28C279.246 14.8133 278.98 15.6133 278.98 16.68V17.352H283.236V20.36H278.98V33H274.98ZM292.886 33.32C291.115 33.32 289.59 32.9893 288.31 32.328C287.03 31.6667 286.038 30.728 285.334 29.512C284.651 28.296 284.31 26.856 284.31 25.192C284.31 23.5707 284.64 22.152 285.302 20.936C285.984 19.72 286.912 18.7707 288.086 18.088C289.28 17.384 290.635 17.032 292.15 17.032C294.368 17.032 296.118 17.736 297.398 19.144C298.699 20.552 299.35 22.472 299.35 24.904V26.088H288.15C288.448 28.8827 290.048 30.28 292.95 30.28C293.824 30.28 294.699 30.152 295.574 29.896C296.448 29.6187 297.248 29.192 297.974 28.616L299.094 31.304C298.347 31.9227 297.408 32.4133 296.278 32.776C295.147 33.1387 294.016 33.32 292.886 33.32ZM292.31 19.752C291.136 19.752 290.187 20.1147 289.462 20.84C288.736 21.5653 288.299 22.5467 288.15 23.784H296.022C295.936 22.4827 295.574 21.4907 294.934 20.808C294.315 20.104 293.44 19.752 292.31 19.752ZM290.838 15.272L294.134 8.776H298.07L293.526 15.272H290.838ZM318.855 33.32C317.084 33.32 315.559 32.9893 314.279 32.328C312.999 31.6667 312.007 30.728 311.303 29.512C310.62 28.296 310.279 26.856 310.279 25.192C310.279 23.5707 310.609 22.152 311.271 20.936C311.953 19.72 312.881 18.7707 314.055 18.088C315.249 17.384 316.604 17.032 318.119 17.032C320.337 17.032 322.087 17.736 323.367 19.144C324.668 20.552 325.319 22.472 325.319 24.904V26.088H314.119C314.417 28.8827 316.017 30.28 318.919 30.28C319.793 30.28 320.668 30.152 321.543 29.896C322.417 29.6187 323.217 29.192 323.943 28.616L325.062 31.304C324.316 31.9227 323.377 32.4133 322.247 32.776C321.116 33.1387 319.985 33.32 318.855 33.32ZM318.279 19.752C317.105 19.752 316.156 20.1147 315.431 20.84C314.705 21.5653 314.268 22.5467 314.119 23.784H321.991C321.905 22.4827 321.543 21.4907 320.903 20.808C320.284 20.104 319.409 19.752 318.279 19.752ZM316.807 15.272L320.103 8.776H324.039L319.495 15.272H316.807ZM342.263 33.32C341.133 33.32 340.119 33.1067 339.223 32.68C338.349 32.232 337.655 31.6347 337.143 30.888C336.653 30.1413 336.407 29.2987 336.407 28.36C336.407 27.208 336.706 26.3013 337.303 25.64C337.901 24.9573 338.871 24.4667 340.215 24.168C341.559 23.8693 343.362 23.72 345.623 23.72H346.743V23.048C346.743 21.9813 346.509 21.2133 346.039 20.744C345.57 20.2747 344.781 20.04 343.671 20.04C342.797 20.04 341.901 20.1787 340.983 20.456C340.066 20.712 339.138 21.1173 338.199 21.672L337.047 18.952C337.602 18.568 338.253 18.2373 338.999 17.96C339.767 17.6613 340.567 17.4373 341.399 17.288C342.253 17.1173 343.053 17.032 343.799 17.032C346.082 17.032 347.778 17.5653 348.887 18.632C349.997 19.6773 350.551 21.3093 350.551 23.528V33H346.807V30.504C346.445 31.3787 345.869 32.072 345.079 32.584C344.29 33.0747 343.351 33.32 342.263 33.32ZM343.095 30.568C344.141 30.568 345.005 30.2053 345.687 29.48C346.391 28.7547 346.743 27.8373 346.743 26.728V26.024H345.655C343.65 26.024 342.253 26.184 341.463 26.504C340.695 26.8027 340.311 27.3573 340.311 28.168C340.311 28.872 340.557 29.448 341.047 29.896C341.538 30.344 342.221 30.568 343.095 30.568ZM361.907 39.08C360.457 39.08 359.091 38.9093 357.811 38.568C356.553 38.248 355.443 37.7467 354.483 37.064L355.635 34.28C356.531 34.8773 357.491 35.3147 358.515 35.592C359.539 35.8907 360.563 36.04 361.587 36.04C364.446 36.04 365.875 34.664 365.875 31.912V29.768C365.427 30.6427 364.734 31.336 363.795 31.848C362.878 32.36 361.854 32.616 360.723 32.616C359.315 32.616 358.089 32.296 357.043 31.656C355.998 30.9947 355.187 30.0773 354.611 28.904C354.035 27.7307 353.747 26.3653 353.747 24.808C353.747 23.2507 354.035 21.896 354.611 20.744C355.187 19.5707 355.998 18.664 357.043 18.024C358.089 17.3627 359.315 17.032 360.723 17.032C361.897 17.032 362.942 17.2987 363.859 17.832C364.777 18.344 365.449 19.0373 365.875 19.912V17.352H369.779V31.432C369.779 33.9707 369.107 35.88 367.763 37.16C366.419 38.44 364.467 39.08 361.907 39.08ZM361.811 29.576C363.049 29.576 364.03 29.1493 364.755 28.296C365.481 27.4427 365.843 26.28 365.843 24.808C365.843 23.336 365.481 22.184 364.755 21.352C364.03 20.4987 363.049 20.072 361.811 20.072C360.574 20.072 359.593 20.4987 358.867 21.352C358.142 22.184 357.779 23.336 357.779 24.808C357.779 26.28 358.142 27.4427 358.867 28.296C359.593 29.1493 360.574 29.576 361.811 29.576ZM381.06 33.32C379.438 33.32 378.03 32.9893 376.836 32.328C375.641 31.6667 374.713 30.728 374.052 29.512C373.39 28.2747 373.06 26.824 373.06 25.16C373.06 23.496 373.39 22.056 374.052 20.84C374.713 19.624 375.641 18.6853 376.836 18.024C378.03 17.3627 379.438 17.032 381.06 17.032C382.681 17.032 384.089 17.3627 385.284 18.024C386.478 18.6853 387.406 19.624 388.068 20.84C388.729 22.056 389.06 23.496 389.06 25.16C389.06 26.824 388.729 28.2747 388.068 29.512C387.406 30.728 386.478 31.6667 385.284 32.328C384.089 32.9893 382.681 33.32 381.06 33.32ZM381.06 30.28C382.254 30.28 383.214 29.8533 383.94 29C384.665 28.1253 385.028 26.8453 385.028 25.16C385.028 23.4533 384.665 22.184 383.94 21.352C383.214 20.4987 382.254 20.072 381.06 20.072C379.865 20.072 378.905 20.4987 378.18 21.352C377.454 22.184 377.092 23.4533 377.092 25.16C377.092 26.8453 377.454 28.1253 378.18 29C378.905 29.8533 379.865 30.28 381.06 30.28ZM392.361 33V17.352H396.265V20.104C397.033 18.248 398.676 17.224 401.193 17.032L402.409 16.936L402.665 20.328L400.361 20.552C397.737 20.808 396.425 22.152 396.425 24.584V33H392.361ZM409.888 33.32C408.758 33.32 407.744 33.1067 406.848 32.68C405.974 32.232 405.28 31.6347 404.768 30.888C404.278 30.1413 404.032 29.2987 404.032 28.36C404.032 27.208 404.331 26.3013 404.928 25.64C405.526 24.9573 406.496 24.4667 407.84 24.168C409.184 23.8693 410.987 23.72 413.248 23.72H414.368V23.048C414.368 21.9813 414.134 21.2133 413.664 20.744C413.195 20.2747 412.406 20.04 411.296 20.04C410.422 20.04 409.526 20.1787 408.608 20.456C407.691 20.712 406.763 21.1173 405.824 21.672L404.672 18.952C405.227 18.568 405.878 18.2373 406.624 17.96C407.392 17.6613 408.192 17.4373 409.024 17.288C409.878 17.1173 410.678 17.032 411.424 17.032C413.707 17.032 415.403 17.5653 416.512 18.632C417.622 19.6773 418.176 21.3093 418.176 23.528V33H414.432V30.504C414.07 31.3787 413.494 32.072 412.704 32.584C411.915 33.0747 410.976 33.32 409.888 33.32ZM410.72 30.568C411.766 30.568 412.63 30.2053 413.312 29.48C414.016 28.7547 414.368 27.8373 414.368 26.728V26.024H413.28C411.275 26.024 409.878 26.184 409.088 26.504C408.32 26.8027 407.936 27.3573 407.936 28.168C407.936 28.872 408.182 29.448 408.672 29.896C409.163 30.344 409.846 30.568 410.72 30.568ZM421.884 33V28.552H426.364V33H421.884Z" fill="#3A3A3A"/>
</svg>
